<?xml version="1.0" encoding="UTF-8"?>
<!DOCTYPE svg PUBLIC "-//W3C//DTD SVG 1.1//EN" "http://www.w3.org/Graphics/SVG/1.1/DTD/svg11.dtd">
<svg xmlns="http://www.w3.org/2000/svg" version="1.1" width="371px" height="386px" style="shape-rendering:geometricPrecision; text-rendering:geometricPrecision; image-rendering:optimizeQuality; fill-rule:evenodd; clip-rule:evenodd" xmlns:xlink="http://www.w3.org/1999/xlink">
<g><path style="opacity:1" fill="#9951ad" d="M 209.5,67.5 C 205.454,67.0479 201.454,66.3813 197.5,65.5C 192.12,65.6757 186.787,65.3424 181.5,64.5C 181.167,64.5 180.833,64.5 180.5,64.5C 173.833,63.8333 167.167,63.1667 160.5,62.5C 175.295,60.8507 189.962,61.684 204.5,65C 206.491,65.3736 208.158,66.207 209.5,67.5 Z"/></g>
<g><path style="opacity:1" fill="#9734b3" d="M 180.5,64.5 C 180.833,64.5 181.167,64.5 181.5,64.5C 183.665,66.1457 185.998,67.6457 188.5,69C 187.289,70.1131 187.289,71.2798 188.5,72.5C 191.834,75.4039 195.168,78.4039 198.5,81.5C 214.706,107.766 218.873,136.099 211,166.5C 207.244,172.456 204.244,178.456 202,184.5C 199.833,187.5 197.667,190.5 195.5,193.5C 194.675,194.386 193.675,194.719 192.5,194.5C 192.649,195.552 192.483,196.552 192,197.5C 188.688,199.645 185.854,202.312 183.5,205.5C 166.02,220.034 145.853,227.367 123,227.5C 117.162,227.06 111.328,226.56 105.5,226C 99.9775,224.134 94.3109,222.801 88.5,222C 87.7734,220.601 87.2734,219.101 87,217.5C 83.7667,218.814 80.9334,218.147 78.5,215.5C 77.1467,217.193 75.48,218.526 73.5,219.5C 71.4759,213.821 69.4759,208.154 67.5,202.5C 68.7899,201.942 69.6232,200.942 70,199.5C 69.7468,202.133 69.7468,204.8 70,207.5C 70.6891,206.643 71.5224,205.977 72.5,205.5C 76.1971,206.696 79.1971,208.863 81.5,212C 85.9844,212.487 89.8177,214.321 93,217.5C 96.561,216.516 99.7277,217.349 102.5,220C 109.569,220.445 116.569,221.278 123.5,222.5C 134.742,221.641 145.742,219.474 156.5,216C 160.59,213.873 164.423,211.373 168,208.5C 170.464,207.839 172.964,207.339 175.5,207C 180.273,200.724 185.606,194.891 191.5,189.5C 193.188,185.243 195.688,181.576 199,178.5C 213.51,147.688 212.676,117.021 196.5,86.5C 193.112,86.1261 191.278,84.1261 191,80.5C 188.021,78.3555 185.188,76.0222 182.5,73.5C 183.09,72.2011 184.09,71.3678 185.5,71C 182.119,71.0695 178.786,70.2361 175.5,68.5C 174.833,68.8333 174.167,69.1667 173.5,69.5C 173.264,68.7528 172.93,67.9195 172.5,67C 169.833,66.6667 167.167,66.3333 164.5,66C 169.754,64.7288 175.087,64.2288 180.5,64.5 Z"/></g>
<g><path style="opacity:0.863" fill="#a25cbd" d="M 159.5,63.5 C 156.913,64.7487 154.246,65.7487 151.5,66.5C 146.833,67.8333 142.167,69.1667 137.5,70.5C 132.474,72.9889 127.474,75.3223 122.5,77.5C 120.938,77.7329 119.605,78.3995 118.5,79.5C 117.167,79.8333 115.833,80.1667 114.5,80.5C 114.953,79.5416 115.619,78.7083 116.5,78C 129.773,70.2589 144.106,65.4256 159.5,63.5 Z"/></g>
<g><path style="opacity:1" fill="#9b38b8" d="M 160.5,62.5 C 167.167,63.1667 173.833,63.8333 180.5,64.5C 175.087,64.2288 169.754,64.7288 164.5,66C 167.167,66.3333 169.833,66.6667 172.5,67C 172.93,67.9195 173.264,68.7528 173.5,69.5C 174.167,69.1667 174.833,68.8333 175.5,68.5C 178.786,70.2361 182.119,71.0695 185.5,71C 184.09,71.3678 183.09,72.2011 182.5,73.5C 185.188,76.0222 188.021,78.3555 191,80.5C 191.278,84.1261 193.112,86.1261 196.5,86.5C 212.676,117.021 213.51,147.688 199,178.5C 195.688,181.576 193.188,185.243 191.5,189.5C 185.606,194.891 180.273,200.724 175.5,207C 172.964,207.339 170.464,207.839 168,208.5C 164.423,211.373 160.59,213.873 156.5,216C 145.742,219.474 134.742,221.641 123.5,222.5C 116.569,221.278 109.569,220.445 102.5,220C 99.7277,217.349 96.561,216.516 93,217.5C 89.8177,214.321 85.9844,212.487 81.5,212C 79.1971,208.863 76.1971,206.696 72.5,205.5C 71.5224,205.977 70.6891,206.643 70,207.5C 69.7468,204.8 69.7468,202.133 70,199.5C 69.6232,200.942 68.7899,201.942 67.5,202.5C 66.6295,199.997 65.9628,197.33 65.5,194.5C 67.13,196.026 67.9633,198.026 68,200.5C 68.5855,198.871 69.4188,197.371 70.5,196C 69.9706,194.441 69.304,192.941 68.5,191.5C 68.8076,190.692 69.3076,190.025 70,189.5C 71.2396,192.277 72.4062,195.11 73.5,198C 70.8184,200.317 70.985,202.484 74,204.5C 74.6259,202.009 75.4593,202.009 76.5,204.5C 95.6429,214.032 115.976,217.865 137.5,216C 140.082,214.287 142.748,213.787 145.5,214.5C 146.428,212.665 147.594,212.332 149,213.5C 149.374,212.584 149.874,211.75 150.5,211C 156.608,209.703 162.274,207.369 167.5,204C 174.566,198.774 181.566,191.94 188.5,183.5C 188.893,179.438 190.893,176.438 194.5,174.5C 195.5,171.167 196.5,167.833 197.5,164.5C 198.167,164.167 198.833,163.833 199.5,163.5C 206.133,144.82 206.133,126.32 199.5,108C 197.741,105.549 196.075,103.049 194.5,100.5C 194.833,99.8333 195.167,99.1667 195.5,98.5C 193.297,96.7046 192.131,94.3712 192,91.5C 190.899,89.6061 189.566,88.9394 188,89.5C 185.584,84.7481 182.751,80.2481 179.5,76C 175.66,75.0414 171.993,73.8747 168.5,72.5C 163.891,71.6609 159.224,70.4942 154.5,69C 154.957,68.586 155.291,68.086 155.5,67.5C 154.311,66.5713 152.978,66.238 151.5,66.5C 154.246,65.7487 156.913,64.7487 159.5,63.5C 159.5,62.8333 159.833,62.5 160.5,62.5 Z"/></g>
<g><path style="opacity:1" fill="#a748ca" d="M 137.5,70.5 C 150.031,72.6982 160.864,78.3648 170,87.5C 170.333,86.8333 170.667,86.1667 171,85.5C 177.083,94.4288 182.416,103.762 187,113.5C 187.741,121.065 189.241,128.399 191.5,135.5C 187.071,177.031 164.071,199.698 122.5,203.5C 111.802,202.036 101.469,199.203 91.5,195C 90.8742,194.25 90.3742,193.416 90,192.5C 88.8869,193.711 87.7202,193.711 86.5,192.5C 82.9471,188.813 79.1138,185.479 75,182.5C 74.6667,180.833 74.3333,179.167 74,177.5C 73.6499,179.429 72.9832,181.429 72,183.5C 71.6667,180.5 71.3333,177.5 71,174.5C 70.3333,177.167 69.6667,177.167 69,174.5C 68.6667,174.833 68.3333,175.167 68,175.5C 67.0352,171.147 66.2019,166.48 65.5,161.5C 66.1306,157.196 66.6306,152.863 67,148.5C 69.1153,145.265 70.9486,141.932 72.5,138.5C 73.1569,144.477 75.3236,149.81 79,154.5C 79.2047,160.06 80.2047,165.393 82,170.5C 83.0437,169.377 83.7104,168.044 84,166.5C 86.099,173.809 88.2657,181.142 90.5,188.5C 93.1987,189.729 95.8654,189.729 98.5,188.5C 99.5498,188.905 99.5498,189.571 98.5,190.5C 101.167,192.167 103.833,193.833 106.5,195.5C 109.432,194.2 111.932,194.867 114,197.5C 114.95,196.978 115.784,196.311 116.5,195.5C 121.637,196.248 126.803,196.915 132,197.5C 137.402,195.255 142.902,193.422 148.5,192C 148.043,191.586 147.709,191.086 147.5,190.5C 150.248,189.172 151.915,187.006 152.5,184C 158.025,184.641 162.025,182.474 164.5,177.5C 167.588,176.921 170.255,175.587 172.5,173.5C 175.746,165.278 179.246,157.945 183,151.5C 185.683,137.13 184.683,123.13 180,109.5C 178.745,108.789 177.579,107.956 176.5,107C 176.833,106.667 177.167,106.333 177.5,106C 175.226,103.656 174.059,100.822 174,97.5C 173.259,96.3595 172.425,96.3595 171.5,97.5C 170.167,95.5 168.5,93.8333 166.5,92.5C 165.914,92.7093 165.414,93.0426 165,93.5C 164.333,90.4995 162.833,87.9995 160.5,86C 155.698,84.0987 151.364,81.432 147.5,78C 139.612,75.5677 131.945,76.0677 124.5,79.5C 123.287,79.2528 122.62,78.5862 122.5,77.5C 127.474,75.3223 132.474,72.9889 137.5,70.5 Z"/></g>
<g><path style="opacity:1" fill="#8b27a5" d="M 197.5,65.5 C 201.454,66.3813 205.454,67.0479 209.5,67.5C 210.167,67.5 210.833,67.5 211.5,67.5C 211.427,69.0269 212.094,70.0269 213.5,70.5C 215.922,71.3758 216.588,72.8758 215.5,75C 215.777,76.8916 216.777,78.2249 218.5,79C 218.167,79.3333 217.833,79.6667 217.5,80C 224.145,84.0196 227.479,90.0196 227.5,98C 229.002,100.516 230.502,103.016 232,105.5C 232.867,112.277 233.867,118.943 235,125.5C 235.667,133.5 235.667,141.5 235,149.5C 233.002,160.464 230.168,171.131 226.5,181.5C 225.325,181.281 224.325,181.614 223.5,182.5C 222.006,184.574 220.673,186.74 219.5,189C 220.357,189.689 221.023,190.522 221.5,191.5C 217.215,197.786 212.549,203.786 207.5,209.5C 205.955,211.44 203.955,212.606 201.5,213C 200.283,214.648 199.45,216.481 199,218.5C 195.296,221.379 191.796,224.379 188.5,227.5C 185.121,229.856 181.454,231.689 177.5,233C 176.833,234 176.167,235 175.5,236C 169.105,238.686 162.438,240.353 155.5,241C 153.404,242.766 151.071,244.099 148.5,245C 132.749,249.298 117.082,249.132 101.5,244.5C 99.7419,245.128 98.2419,246.128 97,247.5C 96.4926,246.004 96.9926,244.837 98.5,244C 95.6212,242.338 93.4545,243.171 92,246.5C 91.6667,245.167 91.3333,243.833 91,242.5C 89.9887,243.337 88.8221,243.67 87.5,243.5C 87.5,242.5 87.5,241.5 87.5,240.5C 85.1274,239.797 83.1274,238.464 81.5,236.5C 80.1083,232.804 78.775,229.137 77.5,225.5C 78.8221,225.67 79.9887,225.337 81,224.5C 81.763,227.193 83.263,229.193 85.5,230.5C 84.9569,230.56 84.6236,230.893 84.5,231.5C 85.376,232.251 86.376,232.751 87.5,233C 87.1667,233.333 86.8333,233.667 86.5,234C 93.5737,235.375 100.907,236.542 108.5,237.5C 111.01,237.876 113.343,238.71 115.5,240C 122.167,240.667 128.833,240.667 135.5,240C 145.486,237.494 155.486,234.828 165.5,232C 174.259,226.236 183.259,220.903 192.5,216C 191.536,212.766 192.869,210.933 196.5,210.5C 196.5,209.5 196.5,208.5 196.5,207.5C 199.469,205.297 202.635,203.297 206,201.5C 206.615,199.884 207.615,198.551 209,197.5C 209.333,195.5 209.667,193.5 210,191.5C 211.955,190.547 213.622,189.213 215,187.5C 216.729,183.71 218.729,180.044 221,176.5C 222.396,166.49 224.896,156.824 228.5,147.5C 228.627,140.213 228.294,132.88 227.5,125.5C 226.849,121.431 225.516,117.597 223.5,114C 223.735,113.127 224.069,112.293 224.5,111.5C 222.681,105.558 221.181,99.5577 220,93.5C 218.402,90.3986 216.235,87.7319 213.5,85.5C 212.208,83.3334 211.375,81.0001 211,78.5C 209.773,76.2739 207.939,74.7739 205.5,74C 206.056,73.6174 206.389,73.1174 206.5,72.5C 208.104,71.713 208.771,70.3797 208.5,68.5C 206.406,69.2422 204.239,69.9089 202,70.5C 200.319,70.3917 199.152,69.7251 198.5,68.5C 198.938,68.5654 199.272,68.3988 199.5,68C 198.619,67.2917 197.953,66.4584 197.5,65.5 Z"/></g>
<g><path style="opacity:1" fill="#912cac" d="M 198.5,68.5 C 199.152,69.7251 200.319,70.3917 202,70.5C 204.239,69.9089 206.406,69.2422 208.5,68.5C 208.771,70.3797 208.104,71.713 206.5,72.5C 204.571,72.2308 202.905,72.7308 201.5,74C 203.878,75.9154 205.378,78.4154 206,81.5C 207.637,83.8102 209.804,85.3102 212.5,86C 211.483,87.0495 211.316,88.2161 212,89.5C 213.894,95.4862 216.728,100.986 220.5,106C 219.978,106.561 219.645,107.228 219.5,108C 221.149,113.389 222.315,118.889 223,124.5C 223.654,123.304 224.154,123.304 224.5,124.5C 223.456,125.623 222.79,126.956 222.5,128.5C 223.474,134.252 223.807,139.919 223.5,145.5C 221.046,155.849 218.546,166.183 216,176.5C 215.667,175.833 215.333,175.167 215,174.5C 214.089,180.105 211.589,184.772 207.5,188.5C 206.087,191.661 204.42,194.661 202.5,197.5C 196.15,203.67 189.817,209.837 183.5,216C 173.268,221.867 162.768,227.367 152,232.5C 151.439,231.978 150.772,231.645 150,231.5C 146.265,231.906 142.765,232.906 139.5,234.5C 138.833,234.167 138.167,233.833 137.5,233.5C 130.182,235.317 122.848,235.984 115.5,235.5C 112.239,235.121 109.239,234.121 106.5,232.5C 102.283,233.353 98.2831,232.686 94.5,230.5C 92.4021,231.484 90.4021,231.151 88.5,229.5C 87.5832,230.127 86.5832,230.461 85.5,230.5C 83.263,229.193 81.763,227.193 81,224.5C 79.9887,225.337 78.8221,225.67 77.5,225.5C 75.1925,224.237 73.8592,222.237 73.5,219.5C 75.48,218.526 77.1467,217.193 78.5,215.5C 78.7086,216.922 79.2086,218.255 80,219.5C 81,220.833 82,220.833 83,219.5C 83.242,221.138 84.0753,222.638 85.5,224C 90.7999,225.99 96.1332,227.99 101.5,230C 108.588,230.173 115.588,231.006 122.5,232.5C 127.474,230.965 132.474,230.632 137.5,231.5C 142.109,230.345 146.775,229.512 151.5,229C 150.167,228.667 148.833,228.333 147.5,228C 152.976,227.376 158.142,225.876 163,223.5C 174.167,217.679 184.667,211.012 194.5,203.5C 193.189,202.742 192.689,201.742 193,200.5C 210.97,182.025 219.803,159.858 219.5,134C 218.942,116.699 214.109,100.866 205,86.5C 204.667,84.5 204.333,82.5 204,80.5C 198.917,76.017 194.084,72.1836 189.5,69C 190.333,68.1667 191.167,67.3333 192,66.5C 193.897,68.0163 196.064,68.683 198.5,68.5 Z"/></g>
<g><path style="opacity:1" fill="#9e3cbe" d="M 168.5,72.5 C 171.993,73.8747 175.66,75.0414 179.5,76C 182.751,80.2481 185.584,84.7481 188,89.5C 189.566,88.9394 190.899,89.6061 192,91.5C 192.131,94.3712 193.297,96.7046 195.5,98.5C 195.167,99.1667 194.833,99.8333 194.5,100.5C 196.075,103.049 197.741,105.549 199.5,108C 206.133,126.32 206.133,144.82 199.5,163.5C 198.833,163.833 198.167,164.167 197.5,164.5C 196.5,167.833 195.5,171.167 194.5,174.5C 190.893,176.438 188.893,179.438 188.5,183.5C 181.566,191.94 174.566,198.774 167.5,204C 162.274,207.369 156.608,209.703 150.5,211C 149.874,211.75 149.374,212.584 149,213.5C 147.594,212.332 146.428,212.665 145.5,214.5C 142.748,213.787 140.082,214.287 137.5,216C 115.976,217.865 95.6429,214.032 76.5,204.5C 75.4593,202.009 74.6259,202.009 74,204.5C 70.985,202.484 70.8184,200.317 73.5,198C 72.4062,195.11 71.2396,192.277 70,189.5C 69.3076,190.025 68.8076,190.692 68.5,191.5C 69.304,192.941 69.9706,194.441 70.5,196C 69.4188,197.371 68.5855,198.871 68,200.5C 67.9633,198.026 67.13,196.026 65.5,194.5C 65.5,192.833 65.5,191.167 65.5,189.5C 66.265,188.34 67.265,187.34 68.5,186.5C 69.1924,187.025 69.6924,187.692 70,188.5C 71.5699,187.386 72.9032,186.053 74,184.5C 74.3095,185.766 74.8095,186.933 75.5,188C 78.7265,191.543 83.0598,194.543 88.5,197C 89.8019,199.213 90.8019,201.546 91.5,204C 98.6444,206.828 105.978,208.828 113.5,210C 120.5,210.667 127.5,210.667 134.5,210C 135.99,208.228 137.657,208.061 139.5,209.5C 142.308,208.03 145.308,207.197 148.5,207C 149.687,205.981 150.687,204.814 151.5,203.5C 156.055,202.616 160.388,201.282 164.5,199.5C 164.5,198.5 164.5,197.5 164.5,196.5C 169.074,196.935 172.074,194.935 173.5,190.5C 179.323,187.491 182.656,182.824 183.5,176.5C 185.144,176.714 186.644,176.38 188,175.5C 188.539,172.471 189.206,169.471 190,166.5C 192.827,163.671 194.827,160.337 196,156.5C 197.087,149.368 197.921,142.201 198.5,135C 197.7,127.83 196.866,120.663 196,113.5C 194.669,110.166 192.835,107.166 190.5,104.5C 189.548,102.955 189.215,101.288 189.5,99.5C 188.167,99.5 186.833,99.5 185.5,99.5C 184.781,91.4504 181.114,85.1171 174.5,80.5C 169.645,79.9125 165.978,77.5791 163.5,73.5C 165.045,72.5481 166.712,72.2148 168.5,72.5 Z"/></g>
<g><path style="opacity:1" fill="#9430b0" d="M 181.5,64.5 C 186.787,65.3424 192.12,65.6757 197.5,65.5C 197.953,66.4584 198.619,67.2917 199.5,68C 199.272,68.3988 198.938,68.5654 198.5,68.5C 196.064,68.683 193.897,68.0163 192,66.5C 191.167,67.3333 190.333,68.1667 189.5,69C 194.084,72.1836 198.917,76.017 204,80.5C 204.333,82.5 204.667,84.5 205,86.5C 214.109,100.866 218.942,116.699 219.5,134C 219.803,159.858 210.97,182.025 193,200.5C 192.689,201.742 193.189,202.742 194.5,203.5C 184.667,211.012 174.167,217.679 163,223.5C 158.142,225.876 152.976,227.376 147.5,228C 148.833,228.333 150.167,228.667 151.5,229C 146.775,229.512 142.109,230.345 137.5,231.5C 132.474,230.632 127.474,230.965 122.5,232.5C 115.588,231.006 108.588,230.173 101.5,230C 96.1332,227.99 90.7999,225.99 85.5,224C 84.0753,222.638 83.242,221.138 83,219.5C 82,220.833 81,220.833 80,219.5C 79.2086,218.255 78.7086,216.922 78.5,215.5C 80.9334,218.147 83.7667,218.814 87,217.5C 87.2734,219.101 87.7734,220.601 88.5,222C 94.3109,222.801 99.9775,224.134 105.5,226C 111.328,226.56 117.162,227.06 123,227.5C 145.853,227.367 166.02,220.034 183.5,205.5C 185.854,202.312 188.688,199.645 192,197.5C 192.483,196.552 192.649,195.552 192.5,194.5C 193.675,194.719 194.675,194.386 195.5,193.5C 197.667,190.5 199.833,187.5 202,184.5C 204.244,178.456 207.244,172.456 211,166.5C 218.873,136.099 214.706,107.766 198.5,81.5C 195.168,78.4039 191.834,75.4039 188.5,72.5C 187.289,71.2798 187.289,70.1131 188.5,69C 185.998,67.6457 183.665,66.1457 181.5,64.5 Z"/></g>
<g><path style="opacity:1" fill="#86229f" d="M 213.5,70.5 C 219.084,70.673 222.751,73.3396 224.5,78.5C 226.409,79.3482 228.409,79.6816 230.5,79.5C 230.216,81.4147 230.549,83.0813 231.5,84.5C 232.039,90.7235 233.539,96.7235 236,102.5C 241.307,122.697 241.807,142.864 237.5,163C 238.91,163.368 239.91,164.201 240.5,165.5C 238.263,169.88 236.763,174.546 236,179.5C 233.476,182.369 231.309,185.536 229.5,189C 230.535,190.507 230.368,192.007 229,193.5C 228.667,193.167 228.333,192.833 228,192.5C 222.87,199.579 217.204,206.246 211,212.5C 210.667,213.5 210.333,214.5 210,215.5C 204.503,220.144 199.003,224.644 193.5,229C 191.587,230.791 189.92,232.791 188.5,235C 185.833,235.667 183.167,236.333 180.5,237C 178.167,238.667 175.833,240.333 173.5,242C 156.323,249.293 138.323,253.126 119.5,253.5C 113.952,252.819 108.452,251.819 103,250.5C 100.804,252.147 98.971,251.813 97.5,249.5C 95.9291,250.309 94.2624,250.643 92.5,250.5C 92.0012,247.736 90.3345,246.069 87.5,245.5C 84.7589,243.025 82.7589,240.025 81.5,236.5C 83.1274,238.464 85.1274,239.797 87.5,240.5C 87.5,241.5 87.5,242.5 87.5,243.5C 88.8221,243.67 89.9887,243.337 91,242.5C 91.3333,243.833 91.6667,245.167 92,246.5C 93.4545,243.171 95.6212,242.338 98.5,244C 96.9926,244.837 96.4926,246.004 97,247.5C 98.2419,246.128 99.7419,245.128 101.5,244.5C 117.082,249.132 132.749,249.298 148.5,245C 151.071,244.099 153.404,242.766 155.5,241C 162.438,240.353 169.105,238.686 175.5,236C 176.167,235 176.833,234 177.5,233C 181.454,231.689 185.121,229.856 188.5,227.5C 191.796,224.379 195.296,221.379 199,218.5C 199.45,216.481 200.283,214.648 201.5,213C 203.955,212.606 205.955,211.44 207.5,209.5C 212.549,203.786 217.215,197.786 221.5,191.5C 221.023,190.522 220.357,189.689 219.5,189C 220.673,186.74 222.006,184.574 223.5,182.5C 224.325,181.614 225.325,181.281 226.5,181.5C 230.168,171.131 233.002,160.464 235,149.5C 235.667,141.5 235.667,133.5 235,125.5C 233.867,118.943 232.867,112.277 232,105.5C 230.502,103.016 229.002,100.516 227.5,98C 227.479,90.0196 224.145,84.0196 217.5,80C 217.833,79.6667 218.167,79.3333 218.5,79C 216.777,78.2249 215.777,76.8916 215.5,75C 216.588,72.8758 215.922,71.3758 213.5,70.5 Z"/></g>
<g><path style="opacity:1" fill="#ab4bd0" d="M 98.5,188.5 C 100.59,186.61 102.923,184.943 105.5,183.5C 109.57,185.747 113.903,187.414 118.5,188.5C 133.805,188.175 147.472,183.342 159.5,174C 160.999,169.8 162.666,165.3 164.5,160.5C 166.816,158.506 169.482,157.506 172.5,157.5C 173.138,155.54 173.138,153.707 172.5,152C 174.273,145.516 175.94,139.016 177.5,132.5C 176.5,132.5 175.5,132.5 174.5,132.5C 174.259,122.786 171.259,113.453 165.5,104.5C 158.423,96.1256 149.756,89.959 139.5,86C 127.84,86.3441 127.506,84.6774 138.5,81C 139.833,80.3333 139.833,79.6667 138.5,79C 133.833,79.1521 129.167,79.6521 124.5,80.5C 122.304,80.4954 120.304,80.162 118.5,79.5C 119.605,78.3995 120.938,77.7329 122.5,77.5C 122.62,78.5862 123.287,79.2528 124.5,79.5C 131.945,76.0677 139.612,75.5677 147.5,78C 151.364,81.432 155.698,84.0987 160.5,86C 162.833,87.9995 164.333,90.4995 165,93.5C 165.414,93.0426 165.914,92.7093 166.5,92.5C 168.5,93.8333 170.167,95.5 171.5,97.5C 172.425,96.3595 173.259,96.3595 174,97.5C 174.059,100.822 175.226,103.656 177.5,106C 177.167,106.333 176.833,106.667 176.5,107C 177.579,107.956 178.745,108.789 180,109.5C 184.683,123.13 185.683,137.13 183,151.5C 179.246,157.945 175.746,165.278 172.5,173.5C 170.255,175.587 167.588,176.921 164.5,177.5C 162.025,182.474 158.025,184.641 152.5,184C 151.915,187.006 150.248,189.172 147.5,190.5C 147.709,191.086 148.043,191.586 148.5,192C 142.902,193.422 137.402,195.255 132,197.5C 126.803,196.915 121.637,196.248 116.5,195.5C 115.784,196.311 114.95,196.978 114,197.5C 111.932,194.867 109.432,194.2 106.5,195.5C 103.833,193.833 101.167,192.167 98.5,190.5C 99.5498,189.571 99.5498,188.905 98.5,188.5 Z"/></g>
<g><path style="opacity:1" fill="#853698" d="M 211.5,67.5 C 225.997,72.2176 238.997,79.5509 250.5,89.5C 248.486,89.6085 246.82,88.9418 245.5,87.5C 245.167,87.5 244.833,87.5 244.5,87.5C 242.574,85.7073 240.241,84.7073 237.5,84.5C 237.5,83.5 237.5,82.5 237.5,81.5C 234.923,81.4551 232.923,82.4551 231.5,84.5C 230.549,83.0813 230.216,81.4147 230.5,79.5C 228.409,79.6816 226.409,79.3482 224.5,78.5C 222.751,73.3396 219.084,70.673 213.5,70.5C 212.094,70.0269 211.427,69.0269 211.5,67.5 Z"/></g>
<g><path style="opacity:1" fill="#811c98" d="M 244.5,87.5 C 244.119,88.9311 243.119,89.7645 241.5,90C 244.412,92.6733 244.079,94.8399 240.5,96.5C 242.457,99.0591 244.123,98.7258 245.5,95.5C 246.5,95.8333 247.167,96.5 247.5,97.5C 246.585,98.3279 245.919,99.3279 245.5,100.5C 246.96,103.4 248.127,106.4 249,109.5C 250.203,118.998 251.37,128.498 252.5,138C 250.977,146.016 249.81,154.183 249,162.5C 244.958,173.624 241.125,184.958 237.5,196.5C 236.5,196.5 235.5,196.5 234.5,196.5C 233.487,202.18 230.653,206.847 226,210.5C 225.529,212.246 224.862,213.913 224,215.5C 215.881,224.46 207.048,232.46 197.5,239.5C 175.759,255.452 150.592,263.785 122,264.5C 117.8,264.545 114.134,263.212 111,260.5C 110.617,261.056 110.117,261.389 109.5,261.5C 106.676,261.011 105.343,259.344 105.5,256.5C 103.94,256.519 102.44,256.852 101,257.5C 99.5936,256.586 98.0936,255.92 96.5,255.5C 92.8618,252.823 89.8618,249.49 87.5,245.5C 90.3345,246.069 92.0012,247.736 92.5,250.5C 94.2624,250.643 95.9291,250.309 97.5,249.5C 98.971,251.813 100.804,252.147 103,250.5C 108.452,251.819 113.952,252.819 119.5,253.5C 138.323,253.126 156.323,249.293 173.5,242C 175.833,240.333 178.167,238.667 180.5,237C 183.167,236.333 185.833,235.667 188.5,235C 189.92,232.791 191.587,230.791 193.5,229C 199.003,224.644 204.503,220.144 210,215.5C 210.333,214.5 210.667,213.5 211,212.5C 217.204,206.246 222.87,199.579 228,192.5C 228.333,192.833 228.667,193.167 229,193.5C 230.368,192.007 230.535,190.507 229.5,189C 231.309,185.536 233.476,182.369 236,179.5C 236.763,174.546 238.263,169.88 240.5,165.5C 239.91,164.201 238.91,163.368 237.5,163C 241.807,142.864 241.307,122.697 236,102.5C 233.539,96.7235 232.039,90.7235 231.5,84.5C 232.923,82.4551 234.923,81.4551 237.5,81.5C 237.5,82.5 237.5,83.5 237.5,84.5C 240.241,84.7073 242.574,85.7073 244.5,87.5 Z"/></g>
<g><path style="opacity:0.569" fill="#ac6cc6" d="M 110.5,83.5 C 102.619,90.2582 94.9523,97.2582 87.5,104.5C 93.6118,95.7181 101.279,88.7181 110.5,83.5 Z"/></g>
<g><path style="opacity:1" fill="#b356d9" d="M 98.5,188.5 C 95.8654,189.729 93.1987,189.729 90.5,188.5C 88.2657,181.142 86.099,173.809 84,166.5C 83.7104,168.044 83.0437,169.377 82,170.5C 80.2047,165.393 79.2047,160.06 79,154.5C 75.3236,149.81 73.1569,144.477 72.5,138.5C 72.267,133.966 73.1003,129.632 75,125.5C 78.4918,119.189 82.4918,113.189 87,107.5C 87.4828,106.552 87.6495,105.552 87.5,104.5C 94.9523,97.2582 102.619,90.2582 110.5,83.5C 110.694,81.0882 112.027,80.0882 114.5,80.5C 115.833,80.1667 117.167,79.8333 118.5,79.5C 120.304,80.162 122.304,80.4954 124.5,80.5C 129.167,79.6521 133.833,79.1521 138.5,79C 139.833,79.6667 139.833,80.3333 138.5,81C 127.506,84.6774 127.84,86.3441 139.5,86C 149.756,89.959 158.423,96.1256 165.5,104.5C 171.259,113.453 174.259,122.786 174.5,132.5C 175.5,132.5 176.5,132.5 177.5,132.5C 175.94,139.016 174.273,145.516 172.5,152C 173.138,153.707 173.138,155.54 172.5,157.5C 169.482,157.506 166.816,158.506 164.5,160.5C 162.666,165.3 160.999,169.8 159.5,174C 147.472,183.342 133.805,188.175 118.5,188.5C 113.903,187.414 109.57,185.747 105.5,183.5C 102.923,184.943 100.59,186.61 98.5,188.5 Z"/></g>
<g><path style="opacity:1" fill="#bc61e6" d="M 156.5,128.5 C 152.894,128.211 149.394,128.544 146,129.5C 140.339,140.958 139.672,152.291 144,163.5C 148.072,159.258 152.239,155.258 156.5,151.5C 158.031,154.784 157.031,157.117 153.5,158.5C 154.311,159.216 154.978,160.05 155.5,161C 151.851,164.306 147.684,166.806 143,168.5C 141.268,166.793 139.435,166.127 137.5,166.5C 136.738,167.628 136.071,168.795 135.5,170C 128.267,171.19 121.433,173.357 115,176.5C 114.308,175.975 113.808,175.308 113.5,174.5C 115.231,174.588 116.564,173.588 117.5,171.5C 119.816,170.84 122.149,170.173 124.5,169.5C 125.442,169.608 126.275,169.941 127,170.5C 128.8,168.683 130.966,167.516 133.5,167C 132.833,166.333 132.167,165.667 131.5,165C 133.314,164.08 134.314,162.58 134.5,160.5C 135.168,154.82 135.834,149.153 136.5,143.5C 137.369,139.535 138.202,135.535 139,131.5C 141.343,127.47 143.176,123.136 144.5,118.5C 133.74,116.463 123.073,116.13 112.5,117.5C 96.1039,117.559 87.4372,125.893 86.5,142.5C 85.5655,143.568 85.2322,144.901 85.5,146.5C 84.6787,149.641 84.1787,152.975 84,156.5C 83.774,152.113 83.274,147.779 82.5,143.5C 84.083,135.54 85.7497,127.54 87.5,119.5C 88.5,119.5 89.5,119.5 90.5,119.5C 90.281,118.325 90.6143,117.325 91.5,116.5C 93.3334,115.948 95.0001,115.115 96.5,114C 95.6634,112.989 95.33,111.822 95.5,110.5C 96.5,110.5 97.5,110.5 98.5,110.5C 98.5017,106.459 99.835,105.792 102.5,108.5C 103.48,107.019 104.647,105.685 106,104.5C 106.333,104.833 106.667,105.167 107,105.5C 115.986,99.8211 125.486,98.9877 135.5,103C 140.079,105.458 144.746,107.624 149.5,109.5C 149.328,111.492 149.995,113.158 151.5,114.5C 151.167,115.167 150.833,115.833 150.5,116.5C 151.397,116.669 152.397,117.002 153.5,117.5C 155.391,120.942 156.391,124.609 156.5,128.5 Z"/></g>
<g><path style="opacity:1" fill="#79148d" d="M 131.5,276.5 C 126.834,274.834 122.167,273.168 117.5,271.5C 116.448,271.649 115.448,271.483 114.5,271C 110.963,268.074 107.296,265.407 103.5,263C 101.177,260.502 98.8432,258.002 96.5,255.5C 98.0936,255.92 99.5936,256.586 101,257.5C 102.44,256.852 103.94,256.519 105.5,256.5C 105.343,259.344 106.676,261.011 109.5,261.5C 110.008,263.233 110.841,263.566 112,262.5C 112.492,263.549 112.326,264.549 111.5,265.5C 114.725,266.761 117.892,268.094 121,269.5C 121.95,268.978 122.784,268.311 123.5,267.5C 126.905,268.614 130.405,269.281 134,269.5C 158.928,266.639 181.761,258.473 202.5,245C 205.091,239.693 209.424,236.859 215.5,236.5C 215.595,233.728 216.929,231.728 219.5,230.5C 222.958,226.059 225.958,221.393 228.5,216.5C 229.93,216.579 231.264,216.246 232.5,215.5C 234.4,211.368 236.566,207.368 239,203.5C 240.011,202.663 241.178,202.33 242.5,202.5C 242.337,200.143 242.503,197.81 243,195.5C 245.461,189.494 248.295,183.661 251.5,178C 251.355,177.228 251.022,176.561 250.5,176C 256.683,158.058 258.35,139.724 255.5,121C 257.245,117.385 256.579,114.385 253.5,112C 253.57,111.235 253.903,110.735 254.5,110.5C 254.369,111.376 254.702,112.043 255.5,112.5C 256.608,109.497 258.275,108.997 260.5,111C 261.942,114.625 262.275,118.292 261.5,122C 264.245,133.888 264.078,145.721 261,157.5C 260.5,163.825 260.334,170.158 260.5,176.5C 257.708,176.452 255.875,177.785 255,180.5C 254.667,183.5 254.333,186.5 254,189.5C 252,190.167 250.667,191.5 250,193.5C 249.667,196.167 249.333,198.833 249,201.5C 242.555,203.373 239.888,207.707 241,214.5C 235.996,215.836 233.662,219.169 234,224.5C 227.852,229.49 222.019,234.824 216.5,240.5C 215.779,242.686 215.113,244.853 214.5,247C 211.5,247.333 208.5,247.667 205.5,248C 203.393,249.264 202.393,251.097 202.5,253.5C 197.103,253.773 192.77,255.939 189.5,260C 180.312,260.463 171.645,262.797 163.5,267C 156.935,267.856 150.602,269.523 144.5,272C 139.845,271.836 135.179,271.836 130.5,272C 129.692,272.308 129.025,272.808 128.5,273.5C 129.77,274.288 130.77,275.288 131.5,276.5 Z"/></g>
<g><path style="opacity:1" fill="#d08af2" d="M 112.5,117.5 C 117.544,117.173 122.544,117.506 127.5,118.5C 128.5,119.167 129.5,119.833 130.5,120.5C 129.252,122.459 127.585,123.959 125.5,125C 127.715,126.391 127.715,128.057 125.5,130C 122.447,130.179 119.447,130.679 116.5,131.5C 116.745,133.016 116.745,134.683 116.5,136.5C 114.86,133.855 112.36,133.855 109,136.5C 108.751,135.376 108.251,134.376 107.5,133.5C 106.77,134.934 105.77,136.1 104.5,137C 105.448,137.483 106.448,137.649 107.5,137.5C 107.034,139.201 107.034,140.701 107.5,142C 107,142.5 106.5,143 106,143.5C 103.816,144.108 101.816,143.441 100,141.5C 98.4667,141.944 96.9667,142.277 95.5,142.5C 96.4724,144.636 98.1391,145.803 100.5,146C 99.5419,147.147 99.8753,148.147 101.5,149C 100.747,150.487 99.9138,150.654 99,149.5C 95.6293,150.907 92.1293,151.407 88.5,151C 86.6863,148.519 86.0196,145.685 86.5,142.5C 87.4372,125.893 96.1039,117.559 112.5,117.5 Z"/></g>
<g><path style="opacity:1" fill="#750d86" d="M 245.5,87.5 C 246.82,88.9418 248.486,89.6085 250.5,89.5C 255.223,93.8861 259.556,98.5528 263.5,103.5C 263.092,106.599 264.259,108.933 267,110.5C 268.131,113.922 269.631,117.088 271.5,120C 270.407,123.083 269.24,122.917 268,119.5C 267.13,120.108 266.63,120.941 266.5,122C 268.501,126.984 270.501,131.984 272.5,137C 271.493,138.52 270.827,140.187 270.5,142C 268.516,179.448 254.682,211.615 229,238.5C 228.667,237.833 228.333,237.167 228,236.5C 226.5,237.667 225,238.833 223.5,240C 225.007,240.837 225.507,242.004 225,243.5C 218.751,247.385 212.917,251.885 207.5,257C 204.249,258.577 201.249,260.577 198.5,263C 193.179,266.109 187.512,268.442 181.5,270C 175.006,273.733 167.672,276.4 159.5,278C 157.404,279.766 155.071,281.099 152.5,282C 153.858,282.934 155.192,283.768 156.5,284.5C 153.833,284.5 151.167,284.5 148.5,284.5C 142.787,281.824 137.12,279.157 131.5,276.5C 130.77,275.288 129.77,274.288 128.5,273.5C 129.025,272.808 129.692,272.308 130.5,272C 135.179,271.836 139.845,271.836 144.5,272C 150.602,269.523 156.935,267.856 163.5,267C 171.645,262.797 180.312,260.463 189.5,260C 192.77,255.939 197.103,253.773 202.5,253.5C 202.393,251.097 203.393,249.264 205.5,248C 208.5,247.667 211.5,247.333 214.5,247C 215.113,244.853 215.779,242.686 216.5,240.5C 222.019,234.824 227.852,229.49 234,224.5C 233.662,219.169 235.996,215.836 241,214.5C 239.888,207.707 242.555,203.373 249,201.5C 249.333,198.833 249.667,196.167 250,193.5C 250.667,191.5 252,190.167 254,189.5C 254.333,186.5 254.667,183.5 255,180.5C 255.875,177.785 257.708,176.452 260.5,176.5C 260.334,170.158 260.5,163.825 261,157.5C 264.078,145.721 264.245,133.888 261.5,122C 262.275,118.292 261.942,114.625 260.5,111C 258.275,108.997 256.608,109.497 255.5,112.5C 254.702,112.043 254.369,111.376 254.5,110.5C 257.252,108.669 257.086,107.002 254,105.5C 253.51,104.207 253.343,102.873 253.5,101.5C 257.876,102.112 258.543,100.946 255.5,98C 251.382,97.8848 247.715,96.7182 244.5,94.5C 244.674,92.139 245.007,89.8056 245.5,87.5 Z"/></g>
<g><path style="opacity:1" fill="#710881" d="M 263.5,103.5 C 270.995,111.811 276.995,121.144 281.5,131.5C 280.235,132.514 279.569,134.014 279.5,136C 280.156,139.698 280.156,143.532 279.5,147.5C 278.9,154.998 277.733,162.665 276,170.5C 273.667,179.167 271.333,187.833 269,196.5C 267.639,198.028 266.472,199.695 265.5,201.5C 264.675,202.386 263.675,202.719 262.5,202.5C 262.963,211.192 258.963,216.025 250.5,217C 247.732,221.457 244.899,225.957 242,230.5C 236.958,236.054 231.792,241.554 226.5,247C 225.552,247.483 224.552,247.649 223.5,247.5C 223.78,250.388 222.447,251.888 219.5,252C 218.833,253 218.167,254 217.5,255C 214.34,255.991 211.84,257.824 210,260.5C 209.667,260.167 209.333,259.833 209,259.5C 204.749,262.419 200.583,265.586 196.5,269C 187.183,273.588 177.517,277.422 167.5,280.5C 167.709,281.086 168.043,281.586 168.5,282C 165.421,282.685 162.421,283.519 159.5,284.5C 158.5,284.5 157.5,284.5 156.5,284.5C 155.192,283.768 153.858,282.934 152.5,282C 155.071,281.099 157.404,279.766 159.5,278C 167.672,276.4 175.006,273.733 181.5,270C 187.512,268.442 193.179,266.109 198.5,263C 201.249,260.577 204.249,258.577 207.5,257C 212.917,251.885 218.751,247.385 225,243.5C 225.507,242.004 225.007,240.837 223.5,240C 225,238.833 226.5,237.667 228,236.5C 228.333,237.167 228.667,237.833 229,238.5C 254.682,211.615 268.516,179.448 270.5,142C 270.827,140.187 271.493,138.52 272.5,137C 270.501,131.984 268.501,126.984 266.5,122C 266.63,120.941 267.13,120.108 268,119.5C 269.24,122.917 270.407,123.083 271.5,120C 269.631,117.088 268.131,113.922 267,110.5C 264.259,108.933 263.092,106.599 263.5,103.5 Z"/></g>
<g><path style="opacity:1" fill="#ab60c7" d="M 87.5,104.5 C 87.6495,105.552 87.4828,106.552 87,107.5C 82.4918,113.189 78.4918,119.189 75,125.5C 73.1003,129.632 72.267,133.966 72.5,138.5C 70.9486,141.932 69.1153,145.265 67,148.5C 66.6306,152.863 66.1306,157.196 65.5,161.5C 64.8333,161.167 64.1667,160.833 63.5,160.5C 65.6427,139.118 73.6427,120.451 87.5,104.5 Z"/></g>
<g><path style="opacity:1" fill="#c16ce8" d="M 156.5,128.5 C 160.105,128.799 163.439,129.965 166.5,132C 164.879,134.166 164.045,136.666 164,139.5C 160.457,142.87 157.957,146.87 156.5,151.5C 152.239,155.258 148.072,159.258 144,163.5C 139.672,152.291 140.339,140.958 146,129.5C 149.394,128.544 152.894,128.211 156.5,128.5 Z"/></g>
<g><path style="opacity:1" fill="#cd7ff4" d="M 112.5,117.5 C 123.073,116.13 133.74,116.463 144.5,118.5C 143.176,123.136 141.343,127.47 139,131.5C 138.202,135.535 137.369,139.535 136.5,143.5C 135.208,145.255 134.208,147.255 133.5,149.5C 129.068,151.902 124.401,153.902 119.5,155.5C 118.167,156.5 118.167,157.5 119.5,158.5C 114.67,159.462 110.003,160.795 105.5,162.5C 100.856,161.446 96.1891,161.446 91.5,162.5C 89.2147,162.324 87.2147,161.657 85.5,160.5C 85.5,155.833 85.5,151.167 85.5,146.5C 85.2322,144.901 85.5655,143.568 86.5,142.5C 86.0196,145.685 86.6863,148.519 88.5,151C 92.1293,151.407 95.6293,150.907 99,149.5C 99.9138,150.654 100.747,150.487 101.5,149C 99.8753,148.147 99.5419,147.147 100.5,146C 98.1391,145.803 96.4724,144.636 95.5,142.5C 96.9667,142.277 98.4667,141.944 100,141.5C 101.816,143.441 103.816,144.108 106,143.5C 106.5,143 107,142.5 107.5,142C 107.034,140.701 107.034,139.201 107.5,137.5C 106.448,137.649 105.448,137.483 104.5,137C 105.77,136.1 106.77,134.934 107.5,133.5C 108.251,134.376 108.751,135.376 109,136.5C 112.36,133.855 114.86,133.855 116.5,136.5C 116.745,134.683 116.745,133.016 116.5,131.5C 119.447,130.679 122.447,130.179 125.5,130C 127.715,128.057 127.715,126.391 125.5,125C 127.585,123.959 129.252,122.459 130.5,120.5C 129.5,119.833 128.5,119.167 127.5,118.5C 122.544,117.506 117.544,117.173 112.5,117.5 Z"/></g>
<g><path style="opacity:1" fill="#c06be6" d="M 136.5,143.5 C 135.834,149.153 135.168,154.82 134.5,160.5C 134.314,162.58 133.314,164.08 131.5,165C 132.167,165.667 132.833,166.333 133.5,167C 130.966,167.516 128.8,168.683 127,170.5C 126.275,169.941 125.442,169.608 124.5,169.5C 122.149,170.173 119.816,170.84 117.5,171.5C 110.905,171.768 104.405,173.102 98,175.5C 95.1273,174.067 92.294,173.567 89.5,174C 88.5838,173.626 87.7504,173.126 87,172.5C 85.8436,168.582 85.3436,164.582 85.5,160.5C 87.2147,161.657 89.2147,162.324 91.5,162.5C 96.1891,161.446 100.856,161.446 105.5,162.5C 110.003,160.795 114.67,159.462 119.5,158.5C 118.167,157.5 118.167,156.5 119.5,155.5C 124.401,153.902 129.068,151.902 133.5,149.5C 134.208,147.255 135.208,145.255 136.5,143.5 Z"/></g>
<g><path style="opacity:1" fill="#8f2aaa" d="M 206.5,72.5 C 206.389,73.1174 206.056,73.6174 205.5,74C 207.939,74.7739 209.773,76.2739 211,78.5C 211.375,81.0001 212.208,83.3334 213.5,85.5C 216.235,87.7319 218.402,90.3986 220,93.5C 221.181,99.5577 222.681,105.558 224.5,111.5C 224.069,112.293 223.735,113.127 223.5,114C 225.516,117.597 226.849,121.431 227.5,125.5C 228.294,132.88 228.627,140.213 228.5,147.5C 224.896,156.824 222.396,166.49 221,176.5C 218.729,180.044 216.729,183.71 215,187.5C 213.622,189.213 211.955,190.547 210,191.5C 209.667,193.5 209.333,195.5 209,197.5C 207.615,198.551 206.615,199.884 206,201.5C 202.635,203.297 199.469,205.297 196.5,207.5C 196.5,208.5 196.5,209.5 196.5,210.5C 192.869,210.933 191.536,212.766 192.5,216C 183.259,220.903 174.259,226.236 165.5,232C 155.486,234.828 145.486,237.494 135.5,240C 128.833,240.667 122.167,240.667 115.5,240C 113.343,238.71 111.01,237.876 108.5,237.5C 100.907,236.542 93.5737,235.375 86.5,234C 86.8333,233.667 87.1667,233.333 87.5,233C 86.376,232.751 85.376,232.251 84.5,231.5C 84.6236,230.893 84.9569,230.56 85.5,230.5C 86.5832,230.461 87.5832,230.127 88.5,229.5C 90.4021,231.151 92.4021,231.484 94.5,230.5C 98.2831,232.686 102.283,233.353 106.5,232.5C 109.239,234.121 112.239,235.121 115.5,235.5C 122.848,235.984 130.182,235.317 137.5,233.5C 138.167,233.833 138.833,234.167 139.5,234.5C 142.765,232.906 146.265,231.906 150,231.5C 150.772,231.645 151.439,231.978 152,232.5C 162.768,227.367 173.268,221.867 183.5,216C 189.817,209.837 196.15,203.67 202.5,197.5C 204.42,194.661 206.087,191.661 207.5,188.5C 211.589,184.772 214.089,180.105 215,174.5C 215.333,175.167 215.667,175.833 216,176.5C 218.546,166.183 221.046,155.849 223.5,145.5C 223.807,139.919 223.474,134.252 222.5,128.5C 222.79,126.956 223.456,125.623 224.5,124.5C 224.154,123.304 223.654,123.304 223,124.5C 222.315,118.889 221.149,113.389 219.5,108C 219.645,107.228 219.978,106.561 220.5,106C 216.728,100.986 213.894,95.4862 212,89.5C 211.316,88.2161 211.483,87.0495 212.5,86C 209.804,85.3102 207.637,83.8102 206,81.5C 205.378,78.4154 203.878,75.9154 201.5,74C 202.905,72.7308 204.571,72.2308 206.5,72.5 Z"/></g>
<g><path style="opacity:1" fill="#7c1793" d="M 244.5,87.5 C 244.833,87.5 245.167,87.5 245.5,87.5C 245.007,89.8056 244.674,92.139 244.5,94.5C 247.715,96.7182 251.382,97.8848 255.5,98C 258.543,100.946 257.876,102.112 253.5,101.5C 253.343,102.873 253.51,104.207 254,105.5C 257.086,107.002 257.252,108.669 254.5,110.5C 253.903,110.735 253.57,111.235 253.5,112C 256.579,114.385 257.245,117.385 255.5,121C 258.35,139.724 256.683,158.058 250.5,176C 251.022,176.561 251.355,177.228 251.5,178C 248.295,183.661 245.461,189.494 243,195.5C 242.503,197.81 242.337,200.143 242.5,202.5C 241.178,202.33 240.011,202.663 239,203.5C 236.566,207.368 234.4,211.368 232.5,215.5C 231.264,216.246 229.93,216.579 228.5,216.5C 225.958,221.393 222.958,226.059 219.5,230.5C 216.929,231.728 215.595,233.728 215.5,236.5C 209.424,236.859 205.091,239.693 202.5,245C 181.761,258.473 158.928,266.639 134,269.5C 130.405,269.281 126.905,268.614 123.5,267.5C 122.784,268.311 121.95,268.978 121,269.5C 117.892,268.094 114.725,266.761 111.5,265.5C 112.326,264.549 112.492,263.549 112,262.5C 110.841,263.566 110.008,263.233 109.5,261.5C 110.117,261.389 110.617,261.056 111,260.5C 114.134,263.212 117.8,264.545 122,264.5C 150.592,263.785 175.759,255.452 197.5,239.5C 207.048,232.46 215.881,224.46 224,215.5C 224.862,213.913 225.529,212.246 226,210.5C 230.653,206.847 233.487,202.18 234.5,196.5C 235.5,196.5 236.5,196.5 237.5,196.5C 241.125,184.958 244.958,173.624 249,162.5C 249.81,154.183 250.977,146.016 252.5,138C 251.37,128.498 250.203,118.998 249,109.5C 248.127,106.4 246.96,103.4 245.5,100.5C 245.919,99.3279 246.585,98.3279 247.5,97.5C 247.167,96.5 246.5,95.8333 245.5,95.5C 244.123,98.7258 242.457,99.0591 240.5,96.5C 244.079,94.8399 244.412,92.6733 241.5,90C 243.119,89.7645 244.119,88.9311 244.5,87.5 Z"/></g>
<g><path style="opacity:1" fill="#690376" d="M 281.5,131.5 C 296.277,172.895 290.777,211.228 265,246.5C 259.929,252.076 254.429,257.076 248.5,261.5C 238.551,264.976 229.218,269.809 220.5,276C 216.615,276.739 212.948,278.073 209.5,280C 202.257,281.949 194.923,283.449 187.5,284.5C 178.19,284.328 178.19,283.828 187.5,283C 194.492,278.668 201.492,274.334 208.5,270C 210.813,269.338 213.146,268.838 215.5,268.5C 215.281,267.325 215.614,266.325 216.5,265.5C 223.299,260.342 229.966,255.009 236.5,249.5C 243.042,241.616 249.542,233.616 256,225.5C 266.178,209.306 273.845,191.973 279,173.5C 279.333,178.5 279.667,183.5 280,188.5C 280.56,182.672 281.06,176.838 281.5,171C 281.644,167.432 280.978,164.099 279.5,161C 280.198,157.738 281.198,154.572 282.5,151.5C 280.712,150.717 279.712,149.384 279.5,147.5C 280.156,143.532 280.156,139.698 279.5,136C 279.569,134.014 280.235,132.514 281.5,131.5 Z"/></g>
<g><path style="opacity:1" fill="#a242c4" d="M 151.5,66.5 C 152.978,66.238 154.311,66.5713 155.5,67.5C 155.291,68.086 154.957,68.586 154.5,69C 159.224,70.4942 163.891,71.6609 168.5,72.5C 166.712,72.2148 165.045,72.5481 163.5,73.5C 165.978,77.5791 169.645,79.9125 174.5,80.5C 181.114,85.1171 184.781,91.4504 185.5,99.5C 186.833,99.5 188.167,99.5 189.5,99.5C 189.215,101.288 189.548,102.955 190.5,104.5C 192.835,107.166 194.669,110.166 196,113.5C 196.866,120.663 197.7,127.83 198.5,135C 197.921,142.201 197.087,149.368 196,156.5C 194.827,160.337 192.827,163.671 190,166.5C 189.206,169.471 188.539,172.471 188,175.5C 186.644,176.38 185.144,176.714 183.5,176.5C 182.656,182.824 179.323,187.491 173.5,190.5C 172.074,194.935 169.074,196.935 164.5,196.5C 164.5,197.5 164.5,198.5 164.5,199.5C 160.388,201.282 156.055,202.616 151.5,203.5C 150.687,204.814 149.687,205.981 148.5,207C 145.308,207.197 142.308,208.03 139.5,209.5C 137.657,208.061 135.99,208.228 134.5,210C 127.5,210.667 120.5,210.667 113.5,210C 105.978,208.828 98.6444,206.828 91.5,204C 90.8019,201.546 89.8019,199.213 88.5,197C 83.0598,194.543 78.7265,191.543 75.5,188C 74.8095,186.933 74.3095,185.766 74,184.5C 72.9032,186.053 71.5699,187.386 70,188.5C 69.6924,187.692 69.1924,187.025 68.5,186.5C 67.265,187.34 66.265,188.34 65.5,189.5C 64.8333,188.833 64.1667,188.167 63.5,187.5C 62.1847,178.598 62.1847,169.598 63.5,160.5C 64.1667,160.833 64.8333,161.167 65.5,161.5C 66.2019,166.48 67.0352,171.147 68,175.5C 68.3333,175.167 68.6667,174.833 69,174.5C 69.6667,177.167 70.3333,177.167 71,174.5C 71.3333,177.5 71.6667,180.5 72,183.5C 72.9832,181.429 73.6499,179.429 74,177.5C 74.3333,179.167 74.6667,180.833 75,182.5C 79.1138,185.479 82.9471,188.813 86.5,192.5C 87.7202,193.711 88.8869,193.711 90,192.5C 90.3742,193.416 90.8742,194.25 91.5,195C 101.469,199.203 111.802,202.036 122.5,203.5C 164.071,199.698 187.071,177.031 191.5,135.5C 189.241,128.399 187.741,121.065 187,113.5C 182.416,103.762 177.083,94.4288 171,85.5C 170.667,86.1667 170.333,86.8333 170,87.5C 160.864,78.3648 150.031,72.6982 137.5,70.5C 142.167,69.1667 146.833,67.8333 151.5,66.5 Z"/></g>
<g><path style="opacity:1" fill="#6d047d" d="M 279.5,147.5 C 279.712,149.384 280.712,150.717 282.5,151.5C 281.198,154.572 280.198,157.738 279.5,161C 280.978,164.099 281.644,167.432 281.5,171C 281.06,176.838 280.56,182.672 280,188.5C 279.667,183.5 279.333,178.5 279,173.5C 273.845,191.973 266.178,209.306 256,225.5C 249.542,233.616 243.042,241.616 236.5,249.5C 229.966,255.009 223.299,260.342 216.5,265.5C 215.614,266.325 215.281,267.325 215.5,268.5C 213.146,268.838 210.813,269.338 208.5,270C 201.492,274.334 194.492,278.668 187.5,283C 178.19,283.828 178.19,284.328 187.5,284.5C 178.167,285.833 168.833,285.833 159.5,284.5C 162.421,283.519 165.421,282.685 168.5,282C 168.043,281.586 167.709,281.086 167.5,280.5C 177.517,277.422 187.183,273.588 196.5,269C 200.583,265.586 204.749,262.419 209,259.5C 209.333,259.833 209.667,260.167 210,260.5C 211.84,257.824 214.34,255.991 217.5,255C 218.167,254 218.833,253 219.5,252C 222.447,251.888 223.78,250.388 223.5,247.5C 224.552,247.649 225.552,247.483 226.5,247C 231.792,241.554 236.958,236.054 242,230.5C 244.899,225.957 247.732,221.457 250.5,217C 258.963,216.025 262.963,211.192 262.5,202.5C 263.675,202.719 264.675,202.386 265.5,201.5C 266.472,199.695 267.639,198.028 269,196.5C 271.333,187.833 273.667,179.167 276,170.5C 277.733,162.665 278.9,154.998 279.5,147.5 Z"/></g>
<g><path style="opacity:0.412" fill="#904ba2" d="M 63.5,187.5 C 64.1667,188.167 64.8333,188.833 65.5,189.5C 65.5,191.167 65.5,192.833 65.5,194.5C 65.9628,197.33 66.6295,199.997 67.5,202.5C 69.4759,208.154 71.4759,213.821 73.5,219.5C 73.8592,222.237 75.1925,224.237 77.5,225.5C 78.775,229.137 80.1083,232.804 81.5,236.5C 80.5416,236.047 79.7083,235.381 79,234.5C 70.5406,219.955 65.3739,204.288 63.5,187.5 Z"/></g>
<g><path style="opacity:0.871" fill="#823a8c" d="M 117.5,271.5 C 122.167,273.168 126.834,274.834 131.5,276.5C 137.12,279.157 142.787,281.824 148.5,284.5C 146.473,284.662 144.473,284.495 142.5,284C 134.646,281.159 126.98,277.826 119.5,274C 118.619,273.292 117.953,272.458 117.5,271.5 Z"/></g>
<g><path style="opacity:0.651" fill="#772382" d="M 248.5,261.5 C 246.947,263.313 245.28,265.147 243.5,267C 214.255,286.399 182.588,292.232 148.5,284.5C 151.167,284.5 153.833,284.5 156.5,284.5C 157.5,284.5 158.5,284.5 159.5,284.5C 168.833,285.833 178.167,285.833 187.5,284.5C 194.923,283.449 202.257,281.949 209.5,280C 212.948,278.073 216.615,276.739 220.5,276C 229.218,269.809 238.551,264.976 248.5,261.5 Z"/></g>
</svg>
