<svg width="1397" height="302" viewBox="0 0 1397 302" fill="none" xmlns="http://www.w3.org/2000/svg">
<g filter="url(#filter0_d_779_44)">
<path d="M203.576 16.6569L203.002 18.0427L203.576 16.6569ZM20.6569 92.4243L22.0427 92.9984L20.6569 92.4243ZM2 164C2 168.418 5.58172 172 10 172C14.4183 172 18 168.418 18 164C18 159.582 14.4183 156 10 156C5.58172 156 2 159.582 2 164ZM286 146C286 127.84 287.913 109.193 280.729 91.8503L277.957 92.9983C284.845 109.626 283 127.39 283 146H286ZM280.729 91.8503C273.618 74.6827 263.195 59.0839 250.056 45.9444L247.934 48.0657C260.795 60.9266 270.997 76.1947 277.957 92.9983L280.729 91.8503ZM250.056 45.9444C236.916 32.8049 221.317 22.3821 204.15 15.271L203.002 18.0427C219.805 25.003 235.073 35.2048 247.934 48.0657L250.056 45.9444ZM204.15 15.271C186.982 8.16 168.582 4.5 150 4.5V7.5C168.188 7.5 186.198 11.0824 203.002 18.0427L204.15 15.271ZM150 4.5C131.418 4.5 113.018 8.16001 95.8503 15.271L96.9983 18.0427C113.802 11.0824 131.812 7.5 150 7.5V4.5ZM95.8503 15.271C78.6827 22.3821 63.0839 32.8049 49.9444 45.9444L52.0657 48.0657C64.9266 35.2048 80.1947 25.003 96.9983 18.0427L95.8503 15.271ZM49.9444 45.9444C36.8049 59.0839 26.3821 74.6827 19.271 91.8503L22.0427 92.9984C29.003 76.1948 39.2048 60.9266 52.0657 48.0657L49.9444 45.9444ZM19.271 91.8503C15.6736 100.535 12.9904 113.998 11.2031 127.49C9.41129 141.016 8.5 154.73 8.5 164H11.5C11.5 154.885 12.3993 141.304 14.1771 127.884C15.9592 114.431 18.6045 101.299 22.0427 92.9984L19.271 91.8503Z" fill="#890FA6"/>
<g filter="url(#filter1_d_779_44)">
<path d="M557 145.5C557 163.885 557.379 182.59 550.343 199.576C543.307 216.561 532.995 231.995 519.995 244.995C506.995 257.995 491.561 268.307 474.576 275.343C457.59 282.379 439.385 286 421 286C402.615 286 384.41 282.379 367.424 275.343C350.439 268.307 335.005 257.995 322.005 244.995C309.005 231.995 298.693 216.561 291.657 199.576C284.621 182.59 284.5 164.385 284.5 146" stroke="#890FA6" stroke-width="3"/>
</g>
<g filter="url(#filter2_d_779_44)">
<path d="M285 129C289.418 129 293 132.582 293 137L293 174.778C293 179.196 289.418 182.778 285 182.778C280.582 182.778 277 179.196 277 174.778L277 137C277 132.582 280.582 129 285 129Z" fill="#1BBF7A"/>
</g>
<path d="M825.51 146C825.51 127.615 827.388 109.41 820.353 92.4243C813.317 75.4387 803.005 60.0052 790.005 47.005C777.004 34.0048 761.571 23.6925 744.585 16.6569C727.6 9.62121 709.395 6 691.01 6C672.625 6 654.42 9.62121 637.434 16.6569C620.448 23.6925 605.015 34.0049 592.015 47.0051C579.014 60.0053 570.545 76.0144 563.51 93C556.474 109.986 557.009 127.115 557.009 145.5" stroke="#890FA6" stroke-width="3"/>
<g filter="url(#filter3_d_779_44)">
<rect x="564.016" y="129" width="53.7779" height="16" rx="8" transform="rotate(90 564.016 129)" fill="#FF8B1F"/>
</g>
<g filter="url(#filter4_d_779_44)">
<path d="M1098.24 145.5C1098.24 163.885 1098.62 182.59 1091.59 199.576C1084.55 216.561 1074.24 231.995 1061.24 244.995C1048.24 257.995 1032.8 268.307 1015.82 275.343C998.832 282.379 980.627 286 962.242 286C943.857 286 925.652 282.379 908.666 275.343C891.681 268.307 876.247 257.995 863.247 244.995C850.247 231.995 839.935 216.561 832.899 199.576C825.863 182.59 825.742 164.385 825.742 146" stroke="#890FA6" stroke-width="3"/>
</g>
<path d="M1361.6 92.4243L1362.99 91.8503V91.8503L1361.6 92.4243ZM1285.84 16.6569L1285.26 18.0427L1285.84 16.6569ZM1371.26 164L1380.55 149.383L1363.25 148.644L1371.26 164ZM1371.26 127L1369.77 127.205L1371.26 127ZM1362.99 91.8503C1355.88 74.6827 1345.45 59.0839 1332.32 45.9444L1330.19 48.0657C1343.05 60.9266 1353.26 76.1947 1360.22 92.9983L1362.99 91.8503ZM1332.32 45.9444C1319.18 32.8049 1303.58 22.3821 1286.41 15.271L1285.26 18.0427C1302.06 25.003 1317.33 35.2048 1330.19 48.0657L1332.32 45.9444ZM1286.41 15.271C1269.24 8.16 1250.84 4.5 1232.26 4.5V7.5C1250.45 7.5 1268.46 11.0824 1285.26 18.0427L1286.41 15.271ZM1232.26 4.5C1213.68 4.5 1195.28 8.16001 1178.11 15.271L1179.26 18.0427C1196.06 11.0824 1214.07 7.5 1232.26 7.5V4.5ZM1178.11 15.271C1160.94 22.3821 1145.34 32.8049 1132.2 45.9444L1134.33 48.0657C1147.19 35.2048 1162.45 25.003 1179.26 18.0427L1178.11 15.271ZM1132.2 45.9444C1119 59.1483 1110.44 75.3676 1103.37 92.426L1106.15 93.574C1113.15 76.6613 1121.53 60.8622 1134.33 48.0657L1132.2 45.9444ZM1103.37 92.426C1096.2 109.744 1096.76 127.207 1096.76 145.5H1099.76C1099.76 127.023 1099.25 110.227 1106.15 93.574L1103.37 92.426ZM1373.33 150.588C1373.7 143.384 1373.91 135.208 1372.75 126.795L1369.77 127.205C1370.9 135.328 1370.7 143.271 1370.34 150.438L1373.33 150.588ZM1372.75 126.795C1370.94 113.741 1366.39 100.064 1362.99 91.8503L1360.22 92.9983C1363.56 101.061 1368.02 114.483 1369.77 127.205L1372.75 126.795Z" fill="#890FA6"/>
</g>
<g filter="url(#filter5_d_779_44)">
<path d="M826 129C830.418 129 834 132.582 834 137L834 174.778C834 179.196 830.418 182.778 826 182.778V182.778C821.582 182.778 818 179.196 818 174.778L818 137C818 132.582 821.582 129 826 129V129Z" fill="#AC2DE4"/>
</g>
<g filter="url(#filter6_d_779_44)">
<rect x="1106" y="129" width="53.7779" height="16" rx="8" transform="rotate(90 1106 129)" fill="#E0331C"/>
</g>
<defs>
<filter id="filter0_d_779_44" x="0.4" y="0.9" width="1395.75" height="300.2" filterUnits="userSpaceOnUse" color-interpolation-filters="sRGB">
<feFlood flood-opacity="0" result="BackgroundImageFix"/>
<feColorMatrix in="SourceAlpha" type="matrix" values="0 0 0 0 0 0 0 0 0 0 0 0 0 0 0 0 0 0 127 0" result="hardAlpha"/>
<feOffset dx="7" dy="5"/>
<feGaussianBlur stdDeviation="4.3"/>
<feComposite in2="hardAlpha" operator="out"/>
<feColorMatrix type="matrix" values="0 0 0 0 0 0 0 0 0 0 0 0 0 0 0 0 0 0 0.25 0"/>
<feBlend mode="normal" in2="BackgroundImageFix" result="effect1_dropShadow_779_44"/>
<feBlend mode="normal" in="SourceGraphic" in2="effect1_dropShadow_779_44" result="shape"/>
</filter>
<filter id="filter1_d_779_44" x="279" y="145.5" width="283.508" height="150" filterUnits="userSpaceOnUse" color-interpolation-filters="sRGB">
<feFlood flood-opacity="0" result="BackgroundImageFix"/>
<feColorMatrix in="SourceAlpha" type="matrix" values="0 0 0 0 0 0 0 0 0 0 0 0 0 0 0 0 0 0 127 0" result="hardAlpha"/>
<feOffset dy="4"/>
<feGaussianBlur stdDeviation="2"/>
<feComposite in2="hardAlpha" operator="out"/>
<feColorMatrix type="matrix" values="0 0 0 0 0 0 0 0 0 0 0 0 0 0 0 0 0 0 0.25 0"/>
<feBlend mode="normal" in2="BackgroundImageFix" result="effect1_dropShadow_779_44"/>
<feBlend mode="normal" in="SourceGraphic" in2="effect1_dropShadow_779_44" result="shape"/>
</filter>
<filter id="filter2_d_779_44" x="277" y="129" width="24" height="61.7812" filterUnits="userSpaceOnUse" color-interpolation-filters="sRGB">
<feFlood flood-opacity="0" result="BackgroundImageFix"/>
<feColorMatrix in="SourceAlpha" type="matrix" values="0 0 0 0 0 0 0 0 0 0 0 0 0 0 0 0 0 0 127 0" result="hardAlpha"/>
<feOffset dx="4" dy="4"/>
<feGaussianBlur stdDeviation="2"/>
<feComposite in2="hardAlpha" operator="out"/>
<feColorMatrix type="matrix" values="0 0 0 0 0 0 0 0 0 0 0 0 0 0 0 0 0 0 0.25 0"/>
<feBlend mode="normal" in2="BackgroundImageFix" result="effect1_dropShadow_779_44"/>
<feBlend mode="normal" in="SourceGraphic" in2="effect1_dropShadow_779_44" result="shape"/>
</filter>
<filter id="filter3_d_779_44" x="548.016" y="129" width="24" height="61.7812" filterUnits="userSpaceOnUse" color-interpolation-filters="sRGB">
<feFlood flood-opacity="0" result="BackgroundImageFix"/>
<feColorMatrix in="SourceAlpha" type="matrix" values="0 0 0 0 0 0 0 0 0 0 0 0 0 0 0 0 0 0 127 0" result="hardAlpha"/>
<feOffset dx="4" dy="4"/>
<feGaussianBlur stdDeviation="2"/>
<feComposite in2="hardAlpha" operator="out"/>
<feColorMatrix type="matrix" values="0 0 0 0 0 0 0 0 0 0 0 0 0 0 0 0 0 0 0.25 0"/>
<feBlend mode="normal" in2="BackgroundImageFix" result="effect1_dropShadow_779_44"/>
<feBlend mode="normal" in="SourceGraphic" in2="effect1_dropShadow_779_44" result="shape"/>
</filter>
<filter id="filter4_d_779_44" x="820.242" y="145.5" width="283.508" height="150" filterUnits="userSpaceOnUse" color-interpolation-filters="sRGB">
<feFlood flood-opacity="0" result="BackgroundImageFix"/>
<feColorMatrix in="SourceAlpha" type="matrix" values="0 0 0 0 0 0 0 0 0 0 0 0 0 0 0 0 0 0 127 0" result="hardAlpha"/>
<feOffset dy="4"/>
<feGaussianBlur stdDeviation="2"/>
<feComposite in2="hardAlpha" operator="out"/>
<feColorMatrix type="matrix" values="0 0 0 0 0 0 0 0 0 0 0 0 0 0 0 0 0 0 0.25 0"/>
<feBlend mode="normal" in2="BackgroundImageFix" result="effect1_dropShadow_779_44"/>
<feBlend mode="normal" in="SourceGraphic" in2="effect1_dropShadow_779_44" result="shape"/>
</filter>
<filter id="filter5_d_779_44" x="818" y="129" width="24" height="61.7812" filterUnits="userSpaceOnUse" color-interpolation-filters="sRGB">
<feFlood flood-opacity="0" result="BackgroundImageFix"/>
<feColorMatrix in="SourceAlpha" type="matrix" values="0 0 0 0 0 0 0 0 0 0 0 0 0 0 0 0 0 0 127 0" result="hardAlpha"/>
<feOffset dx="4" dy="4"/>
<feGaussianBlur stdDeviation="2"/>
<feComposite in2="hardAlpha" operator="out"/>
<feColorMatrix type="matrix" values="0 0 0 0 0 0 0 0 0 0 0 0 0 0 0 0 0 0 0.25 0"/>
<feBlend mode="normal" in2="BackgroundImageFix" result="effect1_dropShadow_779_44"/>
<feBlend mode="normal" in="SourceGraphic" in2="effect1_dropShadow_779_44" result="shape"/>
</filter>
<filter id="filter6_d_779_44" x="1090" y="129" width="24" height="61.7812" filterUnits="userSpaceOnUse" color-interpolation-filters="sRGB">
<feFlood flood-opacity="0" result="BackgroundImageFix"/>
<feColorMatrix in="SourceAlpha" type="matrix" values="0 0 0 0 0 0 0 0 0 0 0 0 0 0 0 0 0 0 127 0" result="hardAlpha"/>
<feOffset dx="4" dy="4"/>
<feGaussianBlur stdDeviation="2"/>
<feComposite in2="hardAlpha" operator="out"/>
<feColorMatrix type="matrix" values="0 0 0 0 0 0 0 0 0 0 0 0 0 0 0 0 0 0 0.25 0"/>
<feBlend mode="normal" in2="BackgroundImageFix" result="effect1_dropShadow_779_44"/>
<feBlend mode="normal" in="SourceGraphic" in2="effect1_dropShadow_779_44" result="shape"/>
</filter>
</defs>
</svg>
