<svg width="97" height="102" viewBox="0 0 97 102" fill="none" xmlns="http://www.w3.org/2000/svg">
<g id="Group 67">
<path id="Vector 25" d="M70.3929 74L87.3929 91M64.9286 74.6071L54 84.9286" stroke="white" stroke-width="1.21429"/>
<path id="Vector 29" d="M65 33V22" stroke="white" stroke-width="2"/>
<g id="Group 66">
<path id="Vector 24" d="M10.3906 72.4405H21.9382H58.8906H62.9323H10.3906ZM10.3906 72.4405V10.6607M66.974 15.8571V10.6607M66.974 10.6607V2H10.3906V10.6607M66.974 10.6607H10.3906M26.5573 38.375H18.474V18.1667H26.5573M43.8787 18.1667H35.218V26.25H27.7121V17.5893V18.1667H26.5573M43.8787 18.1667V24.5179M43.8787 18.1667H26.5573M36.9501 38.375H32.9085M18.474 47.6131H35.218M18.474 52.8095H50.2299M18.474 59.7381H52.5394M24.8251 77.6369L12.7001 88.6071" stroke="#FBFAFA" stroke-width="2.30952"/>
<path id="Vector 26" d="M34.0625 76.4844L43.3006 84.5677" stroke="white" stroke-width="1.15476"/>
<circle id="Ellipse 39" cx="6.92857" cy="93.2254" r="6.92857" fill="white"/>
<circle id="Ellipse 40" cx="30.0223" cy="73.5926" r="6.92857" fill="white"/>
<circle id="Ellipse 41" cx="48.4989" cy="88.6083" r="6.92857" fill="white"/>
<circle id="Ellipse 42" cx="90.0692" cy="94.3817" r="6.92857" fill="white"/>
<circle id="Ellipse 43" cx="48.4993" cy="36.6399" r="12.7024" fill="white"/>
<circle id="Ellipse 44" cx="48.5007" cy="36.6414" r="11.5476" fill="#9E3DBE"/>
<circle id="Ellipse 45" cx="30.0238" cy="73.5941" r="5.77381" fill="#9E3DBE"/>
<circle id="Ellipse 46" cx="6.93006" cy="93.2269" r="5.77381" fill="#9E3DBE"/>
<circle id="Ellipse 47" cx="48.5004" cy="88.6097" r="5.77381" fill="#9E3DBE"/>
<circle id="Ellipse 48" cx="90.0707" cy="94.3832" r="5.77381" fill="#9E3DBE"/>
<path id="Vector 27" d="M46.7656 27.4062V35.4896H53.6942V36.067" stroke="white" stroke-width="1.15476"/>
<path id="Vector 28" d="M74.4788 65.5145L70.7258 72.1544L67.5227 77.8215C67.2835 78.2446 66.6721 78.2391 66.4407 77.8118L53.4509 53.8306C52.473 52.0254 51.9609 50.0048 51.9609 47.9517V47.9517C51.9609 40.4319 58.0569 34.3359 65.5767 34.3359H66.6842H68.2825C75.5312 34.3359 81.4074 40.2121 81.4074 47.4608V47.4608C81.4074 51.3402 80.353 55.1467 78.3571 58.4733L77.9431 59.1633" stroke="white" stroke-width="1.15476"/>
<circle id="Ellipse 49" cx="66.9725" cy="49.3475" r="9.2381" fill="white"/>
<circle id="Ellipse 50" cx="66.974" cy="49.349" r="8.08333" fill="#9936B5"/>
<circle id="Ellipse 51" cx="66.9754" cy="49.3426" r="6.92857" fill="white"/>
<circle id="Ellipse 52" cx="66.9769" cy="49.3441" r="5.77381" fill="#912CAC"/>
<path id="Vector 30" d="M60.4002 39.0156C60.1143 39.1661 59.8072 39.3235 59.5453 39.512C59.0033 39.9023 59.5922 39.2415 59.7383 39.0156" stroke="#912CAC" stroke-width="1.15476" stroke-linecap="round"/>
<path id="Vector 31" d="M61.0653 37.5234C61.02 37.7611 60.8524 37.9788 60.7344 38.1853" stroke="#912CAC" stroke-width="1.15476" stroke-linecap="round"/>
<path id="Vector 32" d="M60.1484 39.0156C60.1484 39.5741 61.0007 39.4124 61.3895 39.4293" stroke="#912CAC" stroke-width="1.15476" stroke-linecap="round"/>
<path id="Vector 33" d="M63.5457 39.1016C58.7918 41.4688 63.4575 39.1502 59.6296 41.0412C58.0542 41.8194 59.7318 41.1156 59.9191 41.0458C61.0346 40.6305 62.1303 40.1704 63.2147 39.6807" stroke="#912CAC" stroke-width="1.15476" stroke-linecap="round"/>
<path id="Vector 34" d="M58.0813 41.5815C59.2169 41.3887 60.3669 40.7801 61.3677 40.2256C61.6045 40.0944 61.8388 39.9404 62.0893 39.8349C62.3475 39.7262 61.6033 40.1136 61.3631 40.2577C61.0385 40.4525 60.7287 40.6689 60.43 40.9012C60.3537 40.9606 59.7711 41.4381 60.3427 41.1219C61.8353 40.2961 66.1634 37.5775 64.6357 38.3365C63.0932 39.1027 61.4468 39.6761 59.9428 40.5151C59.7539 40.6205 59.19 40.9309 59.3958 40.8645C60.1163 40.632 60.8309 40.317 61.5378 40.0463C61.5633 40.0365 63.7049 39.0762 63.1005 39.6051C62.8417 39.8316 62.5258 39.9986 62.2272 40.1658C61.6758 40.4746 62.1863 40.2955 62.503 40.2118C62.914 40.1031 63.2086 40.0198 62.5214 40.0095C61.4554 39.9936 60.3874 40.0368 59.3223 40.0739C59.1979 40.0782 58.6556 40.1643 58.5087 40.0739C58.4275 40.0239 58.629 39.9204 58.711 39.8716C59.1015 39.6394 59.5582 39.4324 59.9612 39.2419C60.7013 38.8922 61.4516 38.5609 62.1721 38.171C62.6145 37.9315 62.4853 37.9383 62.0709 37.9779C61.1792 38.0633 60.2903 38.1819 59.405 38.3181C59.0429 38.3738 58.7528 38.4413 59.2396 38.217C60.043 37.8466 60.8856 37.5696 61.694 37.2103C62.2634 36.9573 61.0933 37.1138 60.9126 37.1138C60.5017 37.1138 60.5409 37.1138 60.8529 37.1138C60.9384 37.1138 61.334 36.9662 61.2344 36.9529C60.8806 36.9058 60.5142 37.1135 60.1864 37.077C60.151 37.0731 60.6919 36.5584 60.7564 36.5025C60.9658 36.321 61.346 36.2907 61.6205 36.2221C61.8106 36.1746 61.2558 36.6446 61.2298 36.668C60.8288 37.0289 60.6326 37.6262 60.3335 38.0699C59.9228 38.679 59.7061 39.3949 59.3637 40.0417C59.0135 40.7031 59.0066 41.4682 58.7615 42.179C58.5703 42.7335 59.2534 42.139 59.405 42.0273C59.6503 41.8468 59.9058 41.6603 60.1129 41.4344C60.1481 41.3959 60.2324 41.2811 60.2324 41.3333C60.2324 41.6223 59.7582 42.2667 59.5705 42.441C59.2195 42.767 58.675 43.1335 58.4582 43.5671C58.151 44.1815 57.5683 44.5995 57.1252 45.1207C56.7474 45.5652 56.3151 45.9298 55.8658 46.2974C55.6745 46.4539 55.5141 46.624 55.3051 46.757C55.0485 46.9203 54.6824 46.9224 54.395 47.0374C54.1651 47.1293 53.7791 47.2659 53.7791 47.5522C53.7791 47.7232 53.6912 48.1873 53.7975 48.329C53.9629 48.5496 55.0753 47.1545 55.1488 47.0236C55.5935 46.2317 55.5599 45.3389 55.9669 44.56C56.1759 44.16 57.8934 42.1176 58.3203 42.7122C58.4869 42.9443 58.2243 43.8619 58.0353 44.1049C57.8299 44.369 57.4917 44.5725 57.378 44.8909C57.2413 45.2738 57.0399 45.4468 56.6104 45.5528C55.9685 45.7112 55.354 45.9283 54.7903 46.279C54.4865 46.468 53.1172 47.1804 53.1172 47.497C53.1172 48.1191 53.1547 48.486 53.6136 48.9449" stroke="#9E3DBE" stroke-width="1.15476" stroke-linecap="round"/>
<path id="Vector 35" d="M60.25 36.7969H60.6093" stroke="#9E3DBE" stroke-width="1.15476" stroke-linecap="round"/>
<path id="Vector 36" d="M60.75 36.7969H60.8424" stroke="#9E3DBE" stroke-width="1.15476" stroke-linecap="round"/>
<path id="Vector 37" d="M60.9862 36.7187C60.7967 36.6926 60.6169 36.7348 60.4364 36.7906C60.3997 36.8019 60.3622 36.8115 60.3258 36.8236C60.3105 36.8287 60.2811 36.8557 60.2802 36.8396C60.2784 36.8073 60.3583 36.7382 60.376 36.7198C60.4345 36.659 60.5002 36.6107 60.5745 36.571C60.8131 36.4434 61.0996 36.4118 61.3307 36.2818C61.3714 36.2589 61.2733 36.267 61.2634 36.267C61.193 36.267 61.1252 36.2656 61.0581 36.2898C60.9458 36.3304 60.8673 36.3737 60.7752 36.4512C60.7146 36.5023 60.6145 36.5518 60.5385 36.5704C60.4128 36.6011 60.3285 36.6338 60.2266 36.7187" stroke="#9E3DBE" stroke-width="1.15476" stroke-linecap="round"/>
</g>
</g>
</svg>
