<svg width="141" height="72" viewBox="0 0 141 72" fill="none" xmlns="http://www.w3.org/2000/svg">
<g id="Group 64">
<rect id="Rectangle 43" x="49.9531" y="0.976562" width="90.3197" height="43.4004" fill="#9B38B7"/>
<rect id="Rectangle 44" x="10.0703" y="38.5156" width="19.9407" height="17.5947" fill="#A849CD"/>
<path id="Vector 10" d="M3.61719 39.1016L9.4821 39.1014V55.5235L3.61719 55.5233V39.1016Z" fill="#A849CD" stroke="#A849CD" stroke-width="1.17298"/>
<rect id="Rectangle 45" x="28.8359" y="51.4141" width="111.433" height="8.21088" fill="#A849CD"/>
<rect id="Rectangle 46" x="26.4922" y="40.8594" width="12.9028" height="12.9028" fill="#A849CD"/>
<path id="Vector 14" d="M3.22487 40.0557C3.5307 39.5714 4.15681 39.1704 4.61503 38.8361C5.17447 38.4278 5.78626 38.066 6.31126 37.6141C6.35348 37.5778 7.02269 36.9439 7.01686 36.9412C6.51639 36.7103 5.77097 36.8874 5.35333 37.2006C4.04601 38.1811 3.14814 39.7145 2.52395 41.1958C2.4026 41.4838 2.26 41.7632 2.19919 42.072C2.15089 42.3172 2.14579 42.5657 2.11274 42.8126C2.07654 43.0831 2.04732 43.3402 2.04732 43.614C2.04732 43.7114 2.01116 43.9965 2.04732 43.9061C2.23275 43.4425 2.34962 42.9265 2.46554 42.4411C2.54626 42.1031 2.57771 41.8436 2.76226 41.5463C3.03233 41.1112 3.30521 40.6764 3.56365 40.2402C3.68976 40.0274 3.77419 39.796 3.89775 39.5837C4.2171 39.0351 4.71364 38.784 5.27156 38.5323C5.64235 38.3651 5.97781 38.1641 6.32995 37.9646C6.53857 37.8464 6.77799 37.7959 7.0005 37.7099C7.38116 37.5628 7.68445 37.3349 8.01917 37.1118" stroke="#FEFEFE" stroke-width="3.51895" stroke-linecap="round"/>
<path id="Vector 20" d="M20.76 65.3956C20.4696 64.9488 20.3658 64.3319 20.2986 63.8144C20.2883 63.7353 20.2274 63.4659 20.316 63.3854C20.5143 63.2056 21.0135 63.4327 21.1839 63.5201C22.0206 63.9495 22.2315 64.7017 22.174 65.5926C22.1414 66.0977 21.9782 66.5187 21.4882 66.7299C21.0674 66.9112 20.6137 66.8815 20.2911 66.5328C19.8972 66.107 19.7058 65.5017 19.5728 64.9517C19.3867 64.1818 19.196 63.1648 19.4631 62.3879C19.709 61.6724 20.4716 61.3557 21.1789 61.3354C22.3096 61.3029 23.6678 61.9519 24.032 63.1111C24.3651 64.1709 23.4398 64.8274 22.6155 65.1886C21.3472 65.7442 19.9192 65.805 18.7349 65.0265C17.9738 64.5262 17.4745 63.7754 17.5353 62.8467C17.591 61.995 18.1265 61.4643 18.8446 61.071C19.4067 60.7632 20.0867 60.5019 20.735 60.4675C21.63 60.42 22.4116 60.9412 23.0793 61.4751C24.0211 62.2281 24.4894 63.1588 24.2365 64.378C23.9998 65.5195 22.918 65.9736 21.8847 66.2061C21.2693 66.3446 20.623 66.3956 19.9968 66.3009C19.5497 66.2332 19.3594 66.0888 19.2361 65.6574C18.876 64.3969 18.8866 62.7406 20.0018 61.8541C20.8726 61.162 21.7628 60.4493 22.9247 60.4151C24.0953 60.3807 25.187 60.8916 25.8077 61.919C26.095 62.3944 26.1409 62.9411 26.2591 63.4702C26.3571 63.9087 26.4163 64.316 26.4163 64.7671C26.4163 65.5409 26.4031 66.2348 26.0472 66.9468C25.5704 67.9003 24.7419 68.3359 23.7427 68.538C22.805 68.7276 21.7956 68.9036 20.8398 68.6976C20.1939 68.5584 19.471 68.0927 19.1638 67.503C19.0436 67.2722 18.8702 67.0742 18.7748 66.8321C18.6621 66.5463 18.5968 66.2496 18.5603 65.9443C18.4815 65.2862 18.6032 64.8242 18.9493 64.2533C19.383 63.538 19.9452 62.9334 20.5629 62.3729C21.2479 61.7514 22.1093 61.0296 23.0145 60.7668C23.4144 60.6507 23.7891 60.8153 24.1667 60.9264C24.7659 61.1026 25.4023 61.0721 26.0122 61.2007C26.3653 61.2752 27.059 61.3155 27.2692 61.6646C27.4859 62.0245 27.4407 62.5209 27.4712 62.9241C27.5003 63.3086 27.4937 63.6934 27.4937 64.0788C27.4937 65.1239 27.668 66.3621 27.2443 67.3459C26.9398 68.0528 26.4096 68.9653 25.6805 69.3011C25.1283 69.5556 24.4493 69.6221 23.8525 69.6852C23.1584 69.7586 22.4752 69.8207 21.7775 69.8498C21.0362 69.8807 20.2372 69.9482 19.503 69.8099C18.4396 69.6097 17.6513 68.7339 16.8893 68.0467C16.1356 67.3668 16.3157 66.1757 16.3157 65.2659C16.3157 64.5738 16.2333 63.8412 16.4304 63.171C16.6306 62.4905 17.0073 61.8625 17.4729 61.3304C17.6495 61.1286 17.7741 60.9604 18.0166 60.8391C18.3225 60.6862 18.6686 60.572 19.0042 60.5049C20.1268 60.2804 21.2911 60.3284 22.4209 60.4825C23.3338 60.607 24.4288 60.5339 25.269 60.9788C25.6959 61.2047 26.1181 61.4311 26.4861 61.7494C26.6926 61.928 26.8121 62.3077 26.93 62.5475C27.211 63.1192 27.3341 63.7654 27.354 64.398C27.3803 65.2333 27.1586 65.924 26.6507 66.5877C26.0798 67.3336 25.3631 67.9601 24.6655 68.5829" stroke="#A849CD" stroke-width="3.51895" stroke-linecap="round"/>
<path id="Vector 21" d="M95.5079 67.2834C94.5692 66.3447 94.1345 64.8293 94.3108 63.5274C94.4347 62.6132 94.6247 61.6096 95.5528 61.2081C96.1787 60.9372 96.8969 60.8793 97.5704 60.8664C98.6932 60.8448 99.9659 61.058 100.77 61.9163C101.594 62.7957 101.917 64.0567 101.917 65.2358C101.917 66.5885 100.993 67.8383 99.6579 68.1238C98.8372 68.2993 97.9666 68.2967 97.1315 68.2635C96.4318 68.2357 95.6487 68.0555 95.044 67.6874C94.4405 67.32 94.1947 66.5829 94.0465 65.9316C93.8321 64.9899 93.7087 63.843 93.9592 62.894C94.3499 61.4133 96.0569 60.3793 97.4981 60.1955C98.5794 60.0576 99.8713 60.638 100.66 61.3377C101.111 61.7376 101.548 62.2604 101.708 62.8541C101.836 63.327 101.771 63.8884 101.678 64.3604C101.457 65.4814 100.789 66.3267 99.7477 66.7995C99.2867 67.0088 98.7722 67.146 98.2712 67.2135C97.6433 67.2982 97.2326 67.1341 96.8422 66.625C96.4826 66.156 96.258 65.6063 96.1613 65.0238C96.076 64.5097 96.0115 63.798 96.316 63.3329C96.7022 62.7428 97.6191 62.7453 98.2263 62.7892C99.5758 62.887 101.074 63.3844 101.244 64.949C101.371 66.121 100.846 67.3394 99.8399 67.9692C98.7641 68.6429 97.2506 68.7133 96.0716 68.2859C95.1799 67.9627 94.5286 67.2444 94.458 66.2908C94.3918 65.3974 94.9308 64.3941 95.8695 64.2208C96.6328 64.0799 97.3852 64.4807 97.9071 65.0089C98.2148 65.3203 98.6898 65.9837 98.4683 66.4703C98.2911 66.8593 97.7034 66.8055 97.3934 66.6649C96.8923 66.4375 96.6662 65.9357 96.6302 65.4154C96.6011 64.9941 96.6911 64.3527 97.134 64.136C97.5957 63.91 98.2015 64.2536 98.5381 64.535C99.0118 64.9311 99.2932 65.4906 98.9945 66.1012C98.5684 66.9722 97.4803 67.416 96.5654 67.448C95.7154 67.4777 95.4995 66.8333 95.2835 66.1461C95.089 65.5275 94.9574 64.7675 95.0889 64.121C95.2879 63.1426 96.1412 62.3669 96.9519 61.869C97.7483 61.3798 98.6153 61.2608 99.5232 61.1233C99.9932 61.0521 100.464 60.9828 100.937 60.9412C101.148 60.9227 101.427 60.876 101.633 60.9686C101.997 61.1325 102.256 61.5862 102.476 61.8964C103.122 62.806 103.319 63.7181 103.319 64.8193C103.319 65.8207 103.204 66.6672 102.616 67.5078C102.422 67.7839 102.163 68.0035 101.937 68.251C101.689 68.523 101.351 68.5942 101.022 68.7274C100.271 69.0318 99.6045 69.1239 98.7925 69.1239C98.0984 69.1239 97.3822 69.1755 96.6901 69.1139C95.8775 69.0417 95.1351 68.4026 94.6949 67.7422C94.2183 67.0274 93.6879 66.4755 93.4878 65.6124C93.2961 64.7854 93.2983 63.8733 93.3082 63.0287C93.3178 62.2146 93.4947 61.2553 94.1786 60.7342C95.1477 59.9959 96.4904 60.0227 97.6477 59.976C98.8468 59.9277 100.012 59.7367 101.174 60.1007C101.578 60.2273 101.822 60.4898 102.147 60.7442C102.379 60.9258 102.609 61.1112 102.798 61.3402C103.395 62.0672 103.424 63.3293 103.239 64.1958C103.111 64.796 102.794 65.3551 102.466 65.8668C101.98 66.6247 101.399 67.65 100.466 67.8969C99.8151 68.0691 99.0985 68.0779 98.4283 68.0889C98.015 68.0957 97.6187 68.1531 97.2587 67.9567" stroke="#A849CD" stroke-width="3.51895" stroke-linecap="round"/>
<path id="Vector 22" d="M124.499 67.3748C124.428 66.8373 124.24 66.1304 124.567 65.6465C125.023 64.9706 126.071 64.6094 126.841 64.8709C127.955 65.2491 129.118 66.3437 128.929 67.6143C128.61 69.7595 125.829 69.7558 124.714 68.2378C124.181 67.5124 123.96 66.5636 123.901 65.6839C123.842 64.8052 123.857 63.3433 124.679 62.766C125.861 61.9352 127.393 62.9411 127.993 63.9905C128.379 64.665 128.516 65.376 128.565 66.1378C128.597 66.6493 128.618 67.1939 128.258 67.6143C127.902 68.0295 127.41 68.0646 126.901 68.0632C126.181 68.0612 125.557 67.9252 124.891 67.6517C123.788 67.1991 123.367 66.5044 123.367 65.3423C123.367 64.6153 123.441 63.768 124.095 63.3172C125.109 62.6191 126.671 62.6432 127.836 62.6363C128.829 62.6305 130.02 62.6234 130.939 63.0852C131.713 63.4747 132.045 64.3809 132.151 65.1851C132.288 66.2247 132.014 67.3243 131.283 68.1031C130.341 69.1065 128.908 69.3964 127.592 69.4398C125.805 69.4988 123.279 69.2845 122.552 67.3449C122.256 66.5559 122.184 65.7117 122.177 64.8759C122.173 64.2621 122.155 63.5572 122.412 62.983C122.751 62.2263 123.738 61.8555 124.494 61.7036C125.132 61.5756 125.843 61.6018 126.49 61.6387C127.18 61.6782 127.912 61.885 128.505 62.2423C129.084 62.5913 129.771 62.8619 130.295 63.2897C131.452 64.2333 131.534 66.2133 130.672 67.3674C129.642 68.7462 127.6 68.8527 126.021 68.8563C125.035 68.8585 124.081 68.662 123.417 67.8786C122.982 67.365 122.722 66.6337 122.626 65.9757C122.549 65.4436 122.42 64.5574 122.719 64.0604C122.957 63.6637 123.443 63.289 123.851 63.0877C124.352 62.8408 124.814 62.5179 125.335 62.3096C125.872 62.0946 126.472 61.9984 127.023 61.8083C127.657 61.5898 128.186 61.4941 128.854 61.4941C129.465 61.4941 130.155 61.4032 130.759 61.524C131.246 61.6214 131.716 61.89 132.133 62.1475C132.552 62.4058 132.951 62.6911 133.208 63.1201C133.641 63.8418 133.746 64.8235 133.662 65.644C133.501 67.2271 132.206 68.6618 130.719 69.1456C129.68 69.4837 128.667 69.799 127.567 69.799C126.957 69.799 126.341 69.8235 125.731 69.789C125.2 69.7589 124.605 69.5568 124.115 69.3501C123.359 69.031 122.554 68.3112 122.12 67.6242C121.882 67.2472 121.701 66.9521 121.604 66.5119C121.503 66.054 121.492 65.5728 121.492 65.1053C121.492 64.0565 121.373 62.9594 121.801 61.9729C122.133 61.2066 122.562 60.605 123.33 60.2396C124.65 59.611 126.18 59.5055 127.627 59.5189C128.331 59.5254 129.233 59.5603 129.889 59.8555C130.314 60.047 130.82 60.0988 131.223 60.3369C131.723 60.6324 132.002 61.1378 132.425 61.5165C132.637 61.7057 132.895 61.8148 133.054 62.0627C133.194 62.2821 133.259 62.5415 133.388 62.766C133.555 63.0555 133.664 64.0674 133.542 63.7561C133.375 63.326 133.356 62.7737 133.253 62.3221C133.152 61.8779 133.034 61.4369 132.974 60.9853C132.957 60.8599 132.941 60.647 132.839 60.5563C132.348 60.1206 131.703 59.8094 131.133 59.4989C130.461 59.1327 129.779 58.8331 129.078 58.5312" stroke="#A849CD" stroke-width="3.51895" stroke-linecap="round"/>
<path id="Vector 23" d="M91.0078 60.2109H106.257H134.995H135.581" stroke="white" stroke-width="1.17298"/>
<path id="Rectangle 47" d="M31.7734 36.1641H37.6384V37.9235V40.2695H35.2924H31.7734V36.1641Z" fill="#A849CD"/>
</g>
</svg>
