<svg width="86" height="96" viewBox="0 0 86 96" fill="none" xmlns="http://www.w3.org/2000/svg">
<path id="Vector" d="M64.2133 50.084H1.91111C0.86 50.084 0 49.0138 0 47.7057C0 46.3977 0.86 45.3275 1.91111 45.3275H64.2133L52.1733 30.3445C51.4089 29.3932 51.4089 27.9662 52.1733 27.0149C52.9378 26.0636 54.0844 26.0636 54.8489 27.0149L70.1378 46.041C70.9022 46.9923 70.9022 48.4192 70.1378 49.3705L54.8489 68.3966C54.4667 68.8722 53.9889 69.1101 53.5111 69.1101C53.0333 69.1101 52.5556 68.8722 52.1733 68.3966C51.4089 67.4453 51.4089 66.0183 52.1733 65.067L64.2133 50.084ZM78.3556 0.140625H17.2C12.9956 0.140625 9.55556 4.42149 9.55556 9.65365V28.6797C9.55556 29.9877 10.4156 31.058 11.4667 31.058C12.5178 31.058 13.3778 29.9877 13.3778 28.6797V9.65365C13.3778 7.03757 15.0978 4.89714 17.2 4.89714H78.3556C80.4578 4.89714 82.1778 7.03757 82.1778 9.65365V85.7578C82.1778 88.3739 80.4578 90.5144 78.3556 90.5144H17.2C15.0978 90.5144 13.3778 88.3739 13.3778 85.7578V66.7318C13.3778 65.4238 12.5178 64.3535 11.4667 64.3535C10.4156 64.3535 9.55556 65.4238 9.55556 66.7318V85.7578C9.55556 90.99 12.9956 95.2709 17.2 95.2709H78.3556C82.56 95.2709 86 90.99 86 85.7578V9.65365C86 4.42149 82.56 0.140625 78.3556 0.140625Z" fill="white"/>
</svg>
