<svg width="110" height="222" viewBox="0 0 110 222" fill="none" xmlns="http://www.w3.org/2000/svg">
<g id="Ornament 38" filter="url(#filter0_d_608_1701)">
<path fill-rule="evenodd" clip-rule="evenodd" d="M83.8833 51.9979C82.3522 53.5903 79.82 53.6399 78.2276 52.1088L55 29.7746L31.7724 52.1088C30.18 53.6399 27.6478 53.5903 26.1167 51.9979C24.5855 50.4054 24.6351 47.8733 26.2276 46.3421L50.8413 22.675C53.164 20.4417 56.836 20.4417 59.1586 22.675L83.7724 46.3421C85.3648 47.8733 85.4145 50.4054 83.8833 51.9979ZM83.8833 86.9979C82.3522 88.5903 79.82 88.6399 78.2276 87.1088L55 64.7746L31.7724 87.1088C30.18 88.6399 27.6478 88.5903 26.1167 86.9979C24.5855 85.4054 24.6351 82.8733 26.2276 81.3421L50.8413 57.675C53.164 55.4417 56.836 55.4417 59.1586 57.675L83.7724 81.3421C85.3648 82.8733 85.4145 85.4054 83.8833 86.9979ZM78.2276 122.109C79.82 123.64 82.3521 123.59 83.8833 121.998C85.4145 120.405 85.3648 117.873 83.7724 116.342L59.1586 92.675C56.836 90.4417 53.164 90.4417 50.8413 92.675L26.2276 116.342C24.6351 117.873 24.5855 120.405 26.1167 121.998C27.6478 123.59 30.18 123.64 31.7724 122.109L55 99.7746L78.2276 122.109ZM83.8833 156.998C82.3521 158.59 79.82 158.64 78.2276 157.109L55 134.775L31.7724 157.109C30.18 158.64 27.6478 158.59 26.1167 156.998C24.5855 155.405 24.6351 152.873 26.2276 151.342L50.8413 127.675C53.164 125.442 56.836 125.442 59.1586 127.675L83.7724 151.342C85.3648 152.873 85.4145 155.405 83.8833 156.998ZM78.2276 192.109C79.82 193.64 82.3521 193.59 83.8833 191.998C85.4145 190.405 85.3648 187.873 83.7724 186.342L59.1586 162.675C56.836 160.442 53.164 160.442 50.8413 162.675L26.2276 186.342C24.6351 187.873 24.5855 190.405 26.1167 191.998C27.6478 193.59 30.18 193.64 31.7724 192.109L55 169.775L78.2276 192.109Z" fill="white"/>
</g>
<defs>
<filter id="filter0_d_608_1701" x="0.4" y="0.4" width="109.2" height="221.427" filterUnits="userSpaceOnUse" color-interpolation-filters="sRGB">
<feFlood flood-opacity="0" result="BackgroundImageFix"/>
<feColorMatrix in="SourceAlpha" type="matrix" values="0 0 0 0 0 0 0 0 0 0 0 0 0 0 0 0 0 0 127 0" result="hardAlpha"/>
<feOffset dy="4"/>
<feGaussianBlur stdDeviation="12.3"/>
<feComposite in2="hardAlpha" operator="out"/>
<feColorMatrix type="matrix" values="0 0 0 0 0 0 0 0 0 0 0 0 0 0 0 0 0 0 0.25 0"/>
<feBlend mode="normal" in2="BackgroundImageFix" result="effect1_dropShadow_608_1701"/>
<feBlend mode="normal" in="SourceGraphic" in2="effect1_dropShadow_608_1701" result="shape"/>
</filter>
</defs>
</svg>
