<svg width="300" height="290" viewBox="0 0 300 290" fill="none" xmlns="http://www.w3.org/2000/svg">
<path d="M91.0843 1.23042C92.0438 0.820958 93.0085 0.421194 93.9781 0.03125H206.022C206.992 0.421194 207.956 0.820958 208.916 1.23042H91.0843Z" fill="white"/>
<path d="M68.5382 13.2221C69.1632 12.8179 69.7915 12.4181 70.4229 12.023H229.577C230.209 12.4181 230.837 12.8179 231.462 13.2221H68.5382Z" fill="white"/>
<path d="M52.4583 25.2138C52.9291 24.8112 53.4026 24.4115 53.8785 24.0147H246.122C246.597 24.4115 247.071 24.8112 247.542 25.2138H52.4583Z" fill="white"/>
<path d="M39.962 37.2055C40.3352 36.8037 40.7107 36.404 41.0882 36.0064H258.912C259.289 36.404 259.665 36.8037 260.038 37.2055H39.962Z" fill="white"/>
<path d="M29.9287 49.1972C30.2305 48.7959 30.5342 48.3962 30.8399 47.9981H269.16C269.466 48.3962 269.77 48.7959 270.071 49.1972H29.9287Z" fill="white"/>
<path d="M21.7853 61.1889C22.0301 60.788 22.2768 60.3882 22.5253 59.9898H277.475C277.723 60.3882 277.97 60.788 278.215 61.1889H21.7853Z" fill="white"/>
<path d="M15.195 73.1806C15.3919 72.7799 15.5906 72.3802 15.791 71.9815H284.209C284.409 72.3802 284.608 72.7799 284.805 73.1806H15.195Z" fill="white"/>
<path d="M9.94351 85.1723C10.0983 84.7718 10.2548 84.372 10.4129 83.9732H289.587C289.745 84.372 289.902 84.7718 290.057 85.1723H9.94351Z" fill="white"/>
<path d="M5.887 97.164C6.0037 96.7636 6.12202 96.3639 6.24197 95.9649H293.758C293.878 96.3639 293.996 96.7636 294.113 97.164H5.887Z" fill="white"/>
<path d="M2.92667 109.156C3.00802 108.755 3.09098 108.356 3.17552 107.957H296.824C296.909 108.356 296.992 108.755 297.073 109.156H2.92667Z" fill="white"/>
<path d="M0.994055 121.147C1.04197 120.747 1.09147 120.347 1.14254 119.948H298.857C298.909 120.347 298.958 120.747 299.006 121.147H0.994055Z" fill="white"/>
<path d="M0.0424838 133.139C0.0582427 132.739 0.075572 132.339 0.0944656 131.94H299.906C299.924 132.339 299.942 132.739 299.958 133.139H0.0424838Z" fill="white"/>
<path d="M0.0424838 145.131C0.0267565 144.732 0.0125933 144.332 0 143.932H300C299.987 144.332 299.973 144.732 299.958 145.131H0.0424838Z" fill="white"/>
<path d="M0.994055 157.123C0.946251 156.723 0.900019 156.324 0.855364 155.923H299.145C299.1 156.324 299.054 156.723 299.006 157.123H0.994055Z" fill="white"/>
<path d="M2.92667 169.114C2.84555 168.715 2.76602 168.315 2.68808 167.915H297.312C297.234 168.315 297.154 168.715 297.073 169.114H2.92667Z" fill="white"/>
<path d="M5.887 181.106C5.7707 180.707 5.65603 180.307 5.54297 179.907H294.457C294.344 180.307 294.229 180.707 294.113 181.106H5.887Z" fill="white"/>
<path d="M9.94351 193.098C9.78935 192.699 9.63684 192.299 9.48601 191.898H290.514C290.363 192.299 290.211 192.699 290.057 193.098H9.94351Z" fill="white"/>
<path d="M15.195 205.089C14.9991 204.691 14.8049 204.291 14.6125 203.89H285.388C285.195 204.291 285.001 204.691 284.805 205.089H15.195Z" fill="white"/>
<path d="M21.7853 217.081C21.5419 216.683 21.3003 216.283 21.0606 215.882H278.939C278.7 216.283 278.458 216.683 278.215 217.081H21.7853Z" fill="white"/>
<path d="M29.9287 229.073C29.6293 228.675 29.3317 228.275 29.0362 227.874H270.964C270.668 228.275 270.371 228.675 270.071 229.073H29.9287Z" fill="white"/>
<path d="M39.962 241.064C39.5925 240.667 39.2252 240.267 38.86 239.865H261.14C260.775 240.267 260.407 240.667 260.038 241.064H39.962Z" fill="white"/>
<path d="M52.4583 253.056C51.994 252.659 51.5322 252.259 51.0728 251.857H248.927C248.468 252.259 248.006 252.659 247.542 253.056H52.4583Z" fill="white"/>
<path d="M68.5382 265.048C67.9268 264.652 67.3185 264.253 66.7133 263.849H233.287C232.682 264.253 232.073 264.652 231.462 265.048H68.5382Z" fill="white"/>
<path d="M91.0843 277.04C90.1683 276.649 89.257 276.249 88.3504 275.84H211.65C210.743 276.249 209.832 276.649 208.916 277.04H91.0843Z" fill="white"/>
<path d="M169.074 287.832C162.827 288.623 156.461 289.031 150 289.031C143.539 289.031 137.173 288.623 130.926 287.832H169.074Z" fill="white"/>
</svg>
