<svg width="1429" height="828" viewBox="0 0 1429 828" fill="none" xmlns="http://www.w3.org/2000/svg">
<g filter="url(#filter0_d_608_1545)">
<path d="M61 293C61 265.386 83.3858 243 111 243H1326C1353.61 243 1376 265.386 1376 293V535C1376 562.614 1353.61 585 1326 585H111C83.3858 585 61 562.614 61 535V293Z" fill="#D9D9D9" fill-opacity="0.45"/>
<g filter="url(#filter1_d_608_1545)">
<rect x="297" y="422" width="834" height="82" rx="3" fill="url(#paint0_linear_608_1545)" shape-rendering="crispEdges"/>
<rect x="297" y="422" width="834" height="82" rx="3" stroke="white" shape-rendering="crispEdges"/>
<path d="M328.896 454.536H341.568V456.528H331.176V461.592H340.512V463.584H331.176V469.008H341.712V471H328.896V454.536ZM345.816 458.376H347.424L347.664 460.08H347.832C348.76 458.752 350.176 458.088 352.08 458.088C353.344 458.088 354.312 458.432 354.984 459.12C355.672 459.792 356.016 460.88 356.016 462.384V471H353.904V462.528C353.904 461.52 353.68 460.824 353.232 460.44C352.784 460.04 352.136 459.84 351.288 459.84C350.68 459.84 350.12 459.992 349.608 460.296C349.096 460.584 348.688 461.008 348.384 461.568C348.08 462.128 347.928 462.784 347.928 463.536V471H345.816V458.376ZM363.208 471.264C362.344 471.264 361.712 471.008 361.312 470.496C360.912 469.984 360.712 469.352 360.712 468.6V460.128H359.176V458.376H360.736L361.192 454.872H362.824V458.376H364.96V460.128H362.824V468.408C362.824 469.16 363.176 469.536 363.88 469.536H364.96V470.928C364.752 471.024 364.48 471.104 364.144 471.168C363.808 471.232 363.496 471.264 363.208 471.264ZM373.583 471.288C371.551 471.288 370.039 470.752 369.047 469.68C368.055 468.608 367.559 466.944 367.559 464.688C367.559 462.432 368.055 460.768 369.047 459.696C370.039 458.624 371.551 458.088 373.583 458.088C375.407 458.088 376.767 458.576 377.663 459.552C378.575 460.512 379.031 462.064 379.031 464.208V465.264H369.743C369.823 466.72 370.167 467.8 370.775 468.504C371.399 469.192 372.335 469.536 373.583 469.536C374.591 469.536 375.407 469.304 376.031 468.84C376.655 468.376 376.967 467.664 376.967 466.704H379.031C379.031 468.176 378.519 469.312 377.495 470.112C376.487 470.896 375.183 471.288 373.583 471.288ZM376.823 463.512C376.823 461.064 375.743 459.84 373.583 459.84C372.383 459.84 371.479 460.128 370.871 460.704C370.279 461.28 369.919 462.216 369.791 463.512H376.823ZM382.767 458.376H384.375L384.615 460.272H384.759C384.999 459.648 385.359 459.128 385.839 458.712C386.319 458.296 386.951 458.088 387.735 458.088C388.167 458.088 388.543 458.152 388.863 458.28V460.32H387.975C387.079 460.32 386.335 460.584 385.743 461.112C385.167 461.624 384.879 462.432 384.879 463.536V471H382.767V458.376ZM404.697 464.184L398.193 454.536H400.953L405.849 462.072H405.969L410.841 454.536H413.457L406.977 464.184V471H404.697V464.184ZM419.486 471.288C417.55 471.288 416.094 470.752 415.118 469.68C414.142 468.592 413.654 466.928 413.654 464.688C413.654 462.448 414.142 460.792 415.118 459.72C416.094 458.632 417.55 458.088 419.486 458.088C421.422 458.088 422.878 458.632 423.854 459.72C424.83 460.792 425.318 462.448 425.318 464.688C425.318 466.928 424.83 468.592 423.854 469.68C422.878 470.752 421.422 471.288 419.486 471.288ZM419.486 469.536C420.766 469.536 421.694 469.168 422.27 468.432C422.846 467.68 423.134 466.464 423.134 464.784V464.592C423.134 462.912 422.846 461.704 422.27 460.968C421.694 460.216 420.766 459.84 419.486 459.84C418.206 459.84 417.278 460.216 416.702 460.968C416.126 461.704 415.838 462.912 415.838 464.592V464.784C415.838 466.464 416.126 467.68 416.702 468.432C417.278 469.168 418.206 469.536 419.486 469.536ZM432.822 471.288C431.558 471.288 430.582 470.952 429.894 470.28C429.222 469.592 428.886 468.496 428.886 466.992V458.376H430.998V466.848C430.998 467.856 431.222 468.56 431.67 468.96C432.118 469.344 432.766 469.536 433.614 469.536C434.222 469.536 434.782 469.392 435.294 469.104C435.806 468.8 436.214 468.368 436.518 467.808C436.822 467.248 436.974 466.592 436.974 465.84V458.376H439.086V471H437.478L437.238 469.296H437.07C436.142 470.624 434.726 471.288 432.822 471.288ZM443.494 458.376H445.102L445.342 460.272H445.486C445.726 459.648 446.086 459.128 446.566 458.712C447.046 458.296 447.678 458.088 448.462 458.088C448.894 458.088 449.27 458.152 449.59 458.28V460.32H448.702C447.806 460.32 447.062 460.584 446.47 461.112C445.894 461.624 445.606 462.432 445.606 463.536V471H443.494V458.376ZM460.854 454.536H473.526V456.528H463.134V461.592H472.47V463.584H463.134V469.008H473.67V471H460.854V454.536ZM477.774 458.376H479.382L479.622 460.08H479.79C480.654 458.752 481.918 458.088 483.582 458.088C485.214 458.088 486.302 458.752 486.846 460.08H486.99C487.422 459.44 487.982 458.952 488.67 458.616C489.374 458.264 490.118 458.088 490.902 458.088C493.382 458.088 494.622 459.36 494.622 461.904V471H492.51V462.288C492.51 461.376 492.31 460.744 491.91 460.392C491.51 460.024 490.958 459.84 490.254 459.84C489.406 459.84 488.694 460.176 488.118 460.848C487.542 461.52 487.254 462.416 487.254 463.536V471H485.142V462.288C485.142 461.376 484.95 460.744 484.566 460.392C484.182 460.024 483.638 459.84 482.934 459.84C482.39 459.84 481.886 459.992 481.422 460.296C480.958 460.584 480.582 461.008 480.294 461.568C480.022 462.128 479.886 462.784 479.886 463.536V471H477.774V458.376ZM502.398 471.288C501.31 471.288 500.342 471.032 499.494 470.52C498.646 470.008 498.222 469.08 498.222 467.736C498.222 466.12 498.942 465.016 500.382 464.424C501.822 463.816 503.902 463.512 506.622 463.512V462.12C506.622 461.384 506.414 460.824 505.998 460.44C505.582 460.04 504.83 459.84 503.742 459.84C502.718 459.84 501.982 460.032 501.534 460.416C501.102 460.8 500.886 461.272 500.886 461.832V462.12H498.846C498.83 462.024 498.822 461.848 498.822 461.592C498.822 460.472 499.286 459.608 500.214 459C501.142 458.392 502.382 458.088 503.934 458.088C505.502 458.088 506.694 458.416 507.51 459.072C508.326 459.728 508.734 460.656 508.734 461.856V468.696C508.734 468.984 508.814 469.2 508.974 469.344C509.134 469.472 509.334 469.536 509.574 469.536H510.534V470.904C510.118 471.096 509.574 471.192 508.902 471.192C508.358 471.192 507.902 471.032 507.534 470.712C507.166 470.376 506.918 469.936 506.79 469.392H506.622C506.19 469.984 505.598 470.448 504.846 470.784C504.11 471.12 503.294 471.288 502.398 471.288ZM502.95 469.536C503.574 469.536 504.166 469.408 504.726 469.152C505.286 468.896 505.742 468.52 506.094 468.024C506.446 467.512 506.622 466.896 506.622 466.176V465.264C504.558 465.264 503.006 465.432 501.966 465.768C500.942 466.088 500.43 466.704 500.43 467.616C500.43 468.304 500.638 468.8 501.054 469.104C501.486 469.392 502.118 469.536 502.95 469.536ZM513.502 453.648H515.59V455.928H513.502V453.648ZM513.502 458.376H515.614V471H513.502V458.376ZM520.022 453.648H522.134V471H520.022V453.648ZM538.054 454.536H540.958L547.342 471H544.918L543.262 466.608H535.63L534.022 471H531.67L538.054 454.536ZM542.518 464.616L540.598 459.48L539.494 456.504H539.374L538.294 459.432L536.374 464.616H542.518ZM554.541 471.288C552.941 471.288 551.709 470.752 550.845 469.68C549.981 468.608 549.549 466.944 549.549 464.688C549.549 462.48 549.973 460.832 550.821 459.744C551.685 458.64 552.861 458.088 554.349 458.088C555.245 458.088 556.005 458.224 556.629 458.496C557.253 458.768 557.773 459.208 558.189 459.816H558.333V453.648H560.445V471H558.861L558.597 469.296H558.453C558.037 469.952 557.485 470.448 556.797 470.784C556.125 471.12 555.373 471.288 554.541 471.288ZM555.069 469.536C556.205 469.536 557.029 469.136 557.541 468.336C558.069 467.536 558.333 466.352 558.333 464.784V464.688C558.333 463.088 558.069 461.88 557.541 461.064C557.013 460.248 556.189 459.84 555.069 459.84C554.269 459.84 553.621 460 553.125 460.32C552.645 460.624 552.293 461.128 552.069 461.832C551.845 462.536 551.733 463.488 551.733 464.688V464.784C551.733 465.968 551.845 466.904 552.069 467.592C552.293 468.28 552.645 468.776 553.125 469.08C553.605 469.384 554.253 469.536 555.069 469.536ZM569.077 471.288C567.477 471.288 566.245 470.752 565.381 469.68C564.517 468.608 564.085 466.944 564.085 464.688C564.085 462.48 564.509 460.832 565.357 459.744C566.221 458.64 567.397 458.088 568.885 458.088C569.781 458.088 570.541 458.224 571.165 458.496C571.789 458.768 572.309 459.208 572.725 459.816H572.869V453.648H574.981V471H573.397L573.133 469.296H572.989C572.573 469.952 572.021 470.448 571.333 470.784C570.661 471.12 569.909 471.288 569.077 471.288ZM569.605 469.536C570.741 469.536 571.565 469.136 572.077 468.336C572.605 467.536 572.869 466.352 572.869 464.784V464.688C572.869 463.088 572.605 461.88 572.077 461.064C571.549 460.248 570.725 459.84 569.605 459.84C568.805 459.84 568.157 460 567.661 460.32C567.181 460.624 566.829 461.128 566.605 461.832C566.381 462.536 566.269 463.488 566.269 464.688V464.784C566.269 465.968 566.381 466.904 566.605 467.592C566.829 468.28 567.181 468.776 567.661 469.08C568.141 469.384 568.789 469.536 569.605 469.536ZM579.389 458.376H580.997L581.237 460.272H581.381C581.621 459.648 581.981 459.128 582.461 458.712C582.941 458.296 583.573 458.088 584.357 458.088C584.789 458.088 585.165 458.152 585.485 458.28V460.32H584.597C583.701 460.32 582.957 460.584 582.365 461.112C581.789 461.624 581.501 462.432 581.501 463.536V471H579.389V458.376ZM593.933 471.288C591.901 471.288 590.389 470.752 589.397 469.68C588.405 468.608 587.909 466.944 587.909 464.688C587.909 462.432 588.405 460.768 589.397 459.696C590.389 458.624 591.901 458.088 593.933 458.088C595.757 458.088 597.117 458.576 598.013 459.552C598.925 460.512 599.381 462.064 599.381 464.208V465.264H590.093C590.173 466.72 590.517 467.8 591.125 468.504C591.749 469.192 592.685 469.536 593.933 469.536C594.941 469.536 595.757 469.304 596.381 468.84C597.005 468.376 597.317 467.664 597.317 466.704H599.381C599.381 468.176 598.869 469.312 597.845 470.112C596.837 470.896 595.533 471.288 593.933 471.288ZM597.173 463.512C597.173 461.064 596.093 459.84 593.933 459.84C592.733 459.84 591.829 460.128 591.221 460.704C590.629 461.28 590.269 462.216 590.141 463.512H597.173ZM607.437 471.288C606.269 471.288 605.293 471.12 604.509 470.784C603.741 470.432 603.173 469.976 602.805 469.416C602.437 468.856 602.253 468.248 602.253 467.592C602.253 467.4 602.253 467.272 602.253 467.208C602.269 467.128 602.277 467.08 602.277 467.064H604.365V467.304C604.365 468.056 604.661 468.624 605.253 469.008C605.845 469.376 606.613 469.56 607.557 469.56C608.373 469.56 609.045 469.4 609.573 469.08C610.117 468.744 610.389 468.28 610.389 467.688C610.389 467.224 610.237 466.848 609.933 466.56C609.629 466.256 609.253 466.024 608.805 465.864C608.357 465.688 607.749 465.504 606.981 465.312C606.053 465.072 605.293 464.832 604.701 464.592C604.125 464.352 603.629 464 603.213 463.536C602.813 463.056 602.613 462.44 602.613 461.688C602.613 460.584 603.061 459.712 603.957 459.072C604.869 458.416 606.093 458.088 607.629 458.088C608.589 458.088 609.421 458.248 610.125 458.568C610.829 458.872 611.357 459.288 611.709 459.816C612.077 460.328 612.261 460.904 612.261 461.544L612.237 462H610.173V461.784C610.173 461.224 609.949 460.76 609.501 460.392C609.069 460.024 608.365 459.84 607.389 459.84C606.429 459.84 605.757 460.016 605.373 460.368C604.989 460.704 604.797 461.096 604.797 461.544C604.797 461.912 604.933 462.216 605.205 462.456C605.477 462.696 605.813 462.888 606.213 463.032C606.613 463.176 607.173 463.336 607.893 463.512C608.885 463.768 609.693 464.024 610.317 464.28C610.941 464.52 611.469 464.896 611.901 465.408C612.349 465.904 612.573 466.568 612.573 467.4C612.573 468.696 612.101 469.672 611.157 470.328C610.229 470.968 608.989 471.288 607.437 471.288ZM620.637 471.288C619.469 471.288 618.493 471.12 617.709 470.784C616.941 470.432 616.373 469.976 616.005 469.416C615.637 468.856 615.453 468.248 615.453 467.592C615.453 467.4 615.453 467.272 615.453 467.208C615.469 467.128 615.477 467.08 615.477 467.064H617.565V467.304C617.565 468.056 617.861 468.624 618.453 469.008C619.045 469.376 619.813 469.56 620.757 469.56C621.573 469.56 622.245 469.4 622.773 469.08C623.317 468.744 623.589 468.28 623.589 467.688C623.589 467.224 623.437 466.848 623.133 466.56C622.829 466.256 622.453 466.024 622.005 465.864C621.557 465.688 620.949 465.504 620.181 465.312C619.253 465.072 618.493 464.832 617.901 464.592C617.325 464.352 616.829 464 616.413 463.536C616.013 463.056 615.813 462.44 615.813 461.688C615.813 460.584 616.261 459.712 617.157 459.072C618.069 458.416 619.293 458.088 620.829 458.088C621.789 458.088 622.621 458.248 623.325 458.568C624.029 458.872 624.557 459.288 624.909 459.816C625.277 460.328 625.461 460.904 625.461 461.544L625.437 462H623.373V461.784C623.373 461.224 623.149 460.76 622.701 460.392C622.269 460.024 621.565 459.84 620.589 459.84C619.629 459.84 618.957 460.016 618.573 460.368C618.189 460.704 617.997 461.096 617.997 461.544C617.997 461.912 618.133 462.216 618.405 462.456C618.677 462.696 619.013 462.888 619.413 463.032C619.813 463.176 620.373 463.336 621.093 463.512C622.085 463.768 622.893 464.024 623.517 464.28C624.141 464.52 624.669 464.896 625.101 465.408C625.549 465.904 625.773 466.568 625.773 467.4C625.773 468.696 625.301 469.672 624.357 470.328C623.429 470.968 622.189 471.288 620.637 471.288Z" fill="#3B3131"/>
<g filter="url(#filter2_d_608_1545)">
<rect x="922" y="434" width="190" height="58" rx="9" fill="#C03AFF"/>
</g>
<path d="M974.944 471.288C972.96 471.288 971.328 470.88 970.048 470.064C968.768 469.232 968.128 467.976 968.128 466.296L968.152 465.792H970.792C970.76 466.016 970.744 466.176 970.744 466.272C970.744 467.168 971.12 467.856 971.872 468.336C972.624 468.8 973.64 469.032 974.92 469.032C976.328 469.032 977.392 468.824 978.112 468.408C978.832 467.992 979.192 467.392 979.192 466.608C979.192 466.048 978.992 465.592 978.592 465.24C978.208 464.872 977.712 464.584 977.104 464.376C976.512 464.152 975.704 463.904 974.68 463.632C973.384 463.296 972.32 462.968 971.488 462.648C970.672 462.312 969.976 461.832 969.4 461.208C968.824 460.568 968.536 459.736 968.536 458.712C968.536 457.256 969.136 456.152 970.336 455.4C971.536 454.632 973.096 454.248 975.016 454.248C976.904 454.248 978.432 454.64 979.6 455.424C980.784 456.208 981.376 457.384 981.376 458.952V459.24H978.784V458.928C978.784 458.16 978.44 457.568 977.752 457.152C977.064 456.72 976.168 456.504 975.064 456.504C973.88 456.504 972.936 456.68 972.232 457.032C971.544 457.384 971.2 457.896 971.2 458.568C971.2 459.064 971.392 459.48 971.776 459.816C972.16 460.136 972.64 460.4 973.216 460.608C973.792 460.816 974.576 461.048 975.568 461.304C976.912 461.656 977.992 461.992 978.808 462.312C979.64 462.632 980.352 463.112 980.944 463.752C981.536 464.376 981.832 465.2 981.832 466.224C981.832 467.984 981.216 469.272 979.984 470.088C978.752 470.888 977.072 471.288 974.944 471.288ZM989.776 471.288C987.104 471.288 985.768 469.84 985.768 466.944V458.376H988.24V466.632C988.24 467.576 988.448 468.24 988.864 468.624C989.296 468.992 989.92 469.176 990.736 469.176C991.296 469.176 991.816 469.04 992.296 468.768C992.776 468.48 993.152 468.08 993.424 467.568C993.712 467.056 993.856 466.464 993.856 465.792V458.376H996.328V471H994.336L994.096 469.32H993.928C993.464 469.96 992.88 470.448 992.176 470.784C991.472 471.12 990.672 471.288 989.776 471.288ZM1007.06 471.288C1006.23 471.288 1005.47 471.12 1004.78 470.784C1004.11 470.448 1003.57 469.96 1003.17 469.32H1003.01L1002.77 471H1000.8V453.648H1003.27V459.816H1003.41C1004.21 458.664 1005.49 458.088 1007.23 458.088C1008.72 458.088 1009.89 458.64 1010.76 459.744C1011.62 460.832 1012.05 462.48 1012.05 464.688C1012.05 466.928 1011.62 468.592 1010.76 469.68C1009.89 470.752 1008.66 471.288 1007.06 471.288ZM1006.37 469.2C1007.5 469.2 1008.31 468.864 1008.79 468.192C1009.27 467.52 1009.51 466.4 1009.51 464.832V464.616C1009.51 463.016 1009.27 461.88 1008.79 461.208C1008.31 460.52 1007.5 460.176 1006.37 460.176C1005.29 460.176 1004.51 460.552 1004.01 461.304C1003.52 462.056 1003.27 463.168 1003.27 464.64V464.832C1003.27 466.272 1003.52 467.36 1004.01 468.096C1004.51 468.832 1005.29 469.2 1006.37 469.2ZM1020.29 471.288C1018.56 471.288 1017.24 470.928 1016.33 470.208C1015.44 469.488 1014.99 468.584 1014.99 467.496C1014.99 467.32 1014.99 467.208 1014.99 467.16C1015 467.096 1015.01 467.056 1015.01 467.04H1017.44V467.256C1017.44 467.944 1017.72 468.464 1018.28 468.816C1018.84 469.152 1019.55 469.32 1020.41 469.32C1021.18 469.32 1021.82 469.176 1022.33 468.888C1022.86 468.6 1023.12 468.192 1023.12 467.664C1023.12 467.248 1022.98 466.912 1022.69 466.656C1022.4 466.384 1022.05 466.176 1021.64 466.032C1021.22 465.872 1020.62 465.688 1019.84 465.48C1018.88 465.24 1018.09 465 1017.48 464.76C1016.88 464.52 1016.36 464.16 1015.92 463.68C1015.51 463.2 1015.3 462.56 1015.3 461.76C1015.3 460.608 1015.77 459.712 1016.72 459.072C1017.66 458.416 1018.92 458.088 1020.48 458.088C1021.46 458.088 1022.31 458.24 1023.03 458.544C1023.76 458.832 1024.32 459.24 1024.71 459.768C1025.11 460.296 1025.31 460.888 1025.31 461.544L1025.28 462.024H1022.86V461.856C1022.86 461.328 1022.64 460.904 1022.21 460.584C1021.8 460.248 1021.15 460.08 1020.27 460.08C1019.42 460.08 1018.8 460.232 1018.4 460.536C1018.01 460.824 1017.82 461.168 1017.82 461.568C1017.82 462.064 1018.06 462.432 1018.54 462.672C1019.02 462.912 1019.78 463.152 1020.82 463.392C1021.83 463.632 1022.65 463.88 1023.29 464.136C1023.93 464.376 1024.48 464.76 1024.95 465.288C1025.41 465.8 1025.64 466.488 1025.64 467.352C1025.64 468.696 1025.16 469.688 1024.18 470.328C1023.22 470.968 1021.92 471.288 1020.29 471.288ZM1034.3 471.288C1032.35 471.288 1030.91 470.752 1029.98 469.68C1029.05 468.608 1028.59 466.944 1028.59 464.688C1028.59 462.432 1029.05 460.768 1029.98 459.696C1030.92 458.624 1032.36 458.088 1034.3 458.088C1036.01 458.088 1037.29 458.512 1038.14 459.36C1039 460.192 1039.43 461.432 1039.43 463.08H1036.94C1036.94 462.056 1036.73 461.304 1036.31 460.824C1035.91 460.344 1035.23 460.104 1034.27 460.104C1033.19 460.104 1032.39 460.464 1031.87 461.184C1031.38 461.904 1031.13 463.056 1031.13 464.64V464.808C1031.13 466.376 1031.38 467.512 1031.87 468.216C1032.39 468.92 1033.2 469.272 1034.32 469.272C1035.27 469.272 1035.95 469.024 1036.39 468.528C1036.83 468.016 1037.06 467.272 1037.06 466.296H1039.43C1039.43 467.8 1039 469.008 1038.14 469.92C1037.27 470.832 1035.99 471.288 1034.3 471.288ZM1042.95 458.376H1044.94L1045.18 460.32H1045.33C1045.9 458.832 1046.87 458.088 1048.23 458.088C1048.68 458.088 1049.07 458.152 1049.41 458.28V460.632H1048.52C1047.58 460.632 1046.82 460.904 1046.26 461.448C1045.7 461.992 1045.42 462.824 1045.42 463.944V471H1042.95V458.376ZM1052.54 453.648H1054.99V456.168H1052.54V453.648ZM1052.54 458.376H1055.01V471H1052.54V458.376ZM1065.75 471.288C1064.92 471.288 1064.16 471.12 1063.47 470.784C1062.8 470.448 1062.26 469.96 1061.86 469.32H1061.69L1061.45 471H1059.49V453.648H1061.96V459.816H1062.1C1062.9 458.664 1064.17 458.088 1065.92 458.088C1067.41 458.088 1068.58 458.64 1069.45 459.744C1070.31 460.832 1070.74 462.48 1070.74 464.688C1070.74 466.928 1070.31 468.592 1069.45 469.68C1068.58 470.752 1067.35 471.288 1065.75 471.288ZM1065.05 469.2C1066.19 469.2 1067 468.864 1067.48 468.192C1067.96 467.52 1068.2 466.4 1068.2 464.832V464.616C1068.2 463.016 1067.96 461.88 1067.48 461.208C1067 460.52 1066.19 460.176 1065.05 460.176C1063.98 460.176 1063.2 460.552 1062.7 461.304C1062.21 462.056 1061.96 463.168 1061.96 464.64V464.832C1061.96 466.272 1062.21 467.36 1062.7 468.096C1063.2 468.832 1063.98 469.2 1065.05 469.2ZM1079.75 471.288C1077.71 471.288 1076.2 470.752 1075.21 469.68C1074.22 468.608 1073.72 466.944 1073.72 464.688C1073.72 462.432 1074.22 460.768 1075.21 459.696C1076.2 458.624 1077.71 458.088 1079.75 458.088C1081.59 458.088 1082.96 458.592 1083.87 459.6C1084.79 460.592 1085.24 462.176 1085.24 464.352V465.312H1076.27C1076.33 466.672 1076.63 467.68 1077.18 468.336C1077.74 468.976 1078.6 469.296 1079.77 469.296C1080.68 469.296 1081.42 469.08 1081.98 468.648C1082.54 468.216 1082.82 467.552 1082.82 466.656H1085.24C1085.24 468.16 1084.73 469.312 1083.71 470.112C1082.7 470.896 1081.38 471.288 1079.75 471.288ZM1082.67 463.44C1082.67 461.2 1081.7 460.08 1079.75 460.08C1078.66 460.08 1077.84 460.352 1077.3 460.896C1076.75 461.424 1076.43 462.272 1076.31 463.44H1082.67Z" fill="white"/>
</g>
<path d="M298.472 353.048V354.84C297.96 354.904 297.523 355.107 297.16 355.448C296.819 355.789 296.552 356.227 296.36 356.76C296.189 357.272 296.104 357.827 296.104 358.424H298.28V362.84H293.8V358.84C293.8 357.56 294.013 356.515 294.44 355.704C294.888 354.893 295.464 354.275 296.168 353.848C296.872 353.421 297.64 353.155 298.472 353.048ZM291.784 353.048V354.84C291.293 354.904 290.867 355.107 290.504 355.448C290.163 355.789 289.896 356.227 289.704 356.76C289.533 357.272 289.448 357.827 289.448 358.424H291.624V362.84H287.144V358.84C287.144 357.56 287.357 356.515 287.784 355.704C288.232 354.893 288.808 354.275 289.512 353.848C290.216 353.421 290.973 353.155 291.784 353.048ZM312.538 375V353.048H324.57C326.192 353.048 327.536 353.336 328.602 353.912C329.69 354.488 330.501 355.299 331.034 356.344C331.568 357.368 331.834 358.552 331.834 359.896C331.834 361.325 331.514 362.595 330.874 363.704C330.234 364.792 329.306 365.624 328.09 366.2L332.57 375H327.29L323.418 367H317.306V375H312.538ZM317.306 363.224H323.93C324.89 363.224 325.637 362.936 326.17 362.36C326.704 361.763 326.97 360.963 326.97 359.96C326.97 359.32 326.853 358.776 326.618 358.328C326.384 357.859 326.042 357.507 325.594 357.272C325.146 357.037 324.592 356.92 323.93 356.92H317.306V363.224ZM344.402 375.384C342.546 375.384 340.989 375.075 339.73 374.456C338.472 373.816 337.522 372.845 336.882 371.544C336.242 370.243 335.922 368.589 335.922 366.584C335.922 364.557 336.242 362.904 336.882 361.624C337.522 360.323 338.461 359.363 339.698 358.744C340.957 358.104 342.493 357.784 344.306 357.784C346.013 357.784 347.453 358.093 348.626 358.712C349.8 359.309 350.685 360.248 351.282 361.528C351.88 362.787 352.178 364.419 352.178 366.424V367.576H340.434C340.477 368.557 340.626 369.389 340.882 370.072C341.16 370.755 341.576 371.267 342.13 371.608C342.706 371.928 343.464 372.088 344.402 372.088C344.914 372.088 345.373 372.024 345.778 371.896C346.205 371.768 346.568 371.576 346.866 371.32C347.165 371.064 347.4 370.744 347.57 370.36C347.741 369.976 347.826 369.539 347.826 369.048H352.178C352.178 370.115 351.986 371.043 351.602 371.832C351.218 372.621 350.685 373.283 350.002 373.816C349.32 374.328 348.498 374.723 347.538 375C346.6 375.256 345.554 375.384 344.402 375.384ZM340.498 364.76H347.602C347.602 364.12 347.517 363.565 347.346 363.096C347.197 362.627 346.984 362.243 346.706 361.944C346.429 361.645 346.088 361.432 345.682 361.304C345.298 361.155 344.861 361.08 344.37 361.08C343.56 361.08 342.877 361.219 342.322 361.496C341.789 361.752 341.373 362.157 341.074 362.712C340.797 363.245 340.605 363.928 340.498 364.76ZM361.49 375.384C360.935 375.384 360.338 375.32 359.698 375.192C359.079 375.064 358.492 374.84 357.938 374.52C357.383 374.179 356.924 373.699 356.562 373.08C356.22 372.44 356.05 371.629 356.05 370.648C356.05 369.475 356.306 368.504 356.818 367.736C357.33 366.968 358.055 366.371 358.994 365.944C359.954 365.496 361.095 365.187 362.418 365.016C363.74 364.845 365.202 364.76 366.802 364.76V363.512C366.802 363.021 366.716 362.595 366.546 362.232C366.396 361.869 366.119 361.581 365.714 361.368C365.33 361.155 364.786 361.048 364.082 361.048C363.378 361.048 362.802 361.133 362.354 361.304C361.927 361.475 361.618 361.699 361.426 361.976C361.255 362.232 361.17 362.52 361.17 362.84V363.224H356.85C356.828 363.117 356.818 363.021 356.818 362.936C356.818 362.829 356.818 362.701 356.818 362.552C356.818 361.571 357.116 360.728 357.714 360.024C358.311 359.299 359.154 358.744 360.242 358.36C361.33 357.976 362.599 357.784 364.05 357.784C365.607 357.784 366.908 357.987 367.954 358.392C369.02 358.797 369.831 359.395 370.386 360.184C370.962 360.973 371.25 361.965 371.25 363.16V370.808C371.25 371.192 371.356 371.48 371.57 371.672C371.804 371.843 372.06 371.928 372.338 371.928H373.394V374.84C373.18 374.947 372.85 375.053 372.402 375.16C371.954 375.288 371.41 375.352 370.77 375.352C370.151 375.352 369.596 375.256 369.106 375.064C368.636 374.893 368.242 374.648 367.922 374.328C367.602 373.987 367.378 373.581 367.25 373.112H367.026C366.663 373.56 366.215 373.955 365.682 374.296C365.17 374.637 364.562 374.904 363.858 375.096C363.175 375.288 362.386 375.384 361.49 375.384ZM362.994 372.024C363.591 372.024 364.124 371.939 364.594 371.768C365.063 371.576 365.458 371.331 365.778 371.032C366.098 370.712 366.343 370.328 366.514 369.88C366.706 369.432 366.802 368.952 366.802 368.44V367.512C365.607 367.512 364.54 367.597 363.602 367.768C362.663 367.917 361.916 368.184 361.362 368.568C360.828 368.952 360.562 369.485 360.562 370.168C360.562 370.552 360.658 370.883 360.85 371.16C361.042 371.437 361.319 371.651 361.682 371.8C362.044 371.949 362.482 372.024 362.994 372.024ZM384.596 375.384C382.804 375.384 381.3 375.075 380.084 374.456C378.868 373.816 377.94 372.845 377.3 371.544C376.682 370.221 376.372 368.568 376.372 366.584C376.372 364.557 376.682 362.904 377.3 361.624C377.94 360.323 378.868 359.352 380.084 358.712C381.322 358.072 382.826 357.752 384.596 357.752C385.748 357.752 386.783 357.891 387.7 358.168C388.639 358.445 389.45 358.872 390.132 359.448C390.815 360.024 391.327 360.739 391.668 361.592C392.031 362.424 392.212 363.416 392.212 364.568H387.764C387.764 363.8 387.647 363.171 387.412 362.68C387.178 362.189 386.815 361.816 386.324 361.56C385.855 361.304 385.258 361.176 384.532 361.176C383.679 361.176 382.986 361.368 382.452 361.752C381.919 362.136 381.524 362.701 381.268 363.448C381.012 364.195 380.884 365.123 380.884 366.232V366.968C380.884 368.056 381.012 368.973 381.268 369.72C381.546 370.467 381.962 371.032 382.516 371.416C383.071 371.779 383.796 371.96 384.692 371.96C385.418 371.96 386.015 371.832 386.484 371.576C386.975 371.32 387.348 370.936 387.604 370.424C387.86 369.912 387.988 369.293 387.988 368.568H392.212C392.212 369.656 392.031 370.627 391.668 371.48C391.327 372.333 390.815 373.048 390.132 373.624C389.471 374.2 388.671 374.637 387.732 374.936C386.794 375.235 385.748 375.384 384.596 375.384ZM397.148 375V351.864H401.596V360.024H401.82C402.183 359.576 402.609 359.192 403.1 358.872C403.612 358.531 404.177 358.264 404.796 358.072C405.436 357.88 406.129 357.784 406.876 357.784C407.985 357.784 408.956 357.987 409.788 358.392C410.62 358.797 411.26 359.437 411.708 360.312C412.177 361.187 412.412 362.328 412.412 363.736V375H407.964V364.44C407.964 363.907 407.9 363.459 407.772 363.096C407.644 362.712 407.452 362.403 407.196 362.168C406.961 361.912 406.663 361.731 406.3 361.624C405.937 361.517 405.532 361.464 405.084 361.464C404.423 361.464 403.825 361.624 403.292 361.944C402.759 362.264 402.343 362.701 402.044 363.256C401.745 363.811 401.596 364.451 401.596 365.176V375H397.148ZM436.503 375.384C434.178 375.384 432.173 374.968 430.487 374.136C428.802 373.304 427.511 372.045 426.615 370.36C425.719 368.675 425.271 366.563 425.271 364.024C425.271 361.443 425.719 359.32 426.615 357.656C427.511 355.971 428.802 354.723 430.487 353.912C432.173 353.08 434.178 352.664 436.503 352.664C438.871 352.664 440.887 353.08 442.551 353.912C444.237 354.723 445.527 355.971 446.423 357.656C447.319 359.32 447.767 361.443 447.767 364.024C447.767 366.563 447.319 368.675 446.423 370.36C445.527 372.045 444.237 373.304 442.551 374.136C440.887 374.968 438.871 375.384 436.503 375.384ZM436.503 371.48C437.549 371.48 438.466 371.331 439.255 371.032C440.045 370.733 440.706 370.285 441.239 369.688C441.773 369.091 442.178 368.365 442.455 367.512C442.733 366.637 442.871 365.645 442.871 364.536V363.544C442.871 362.413 442.733 361.411 442.455 360.536C442.178 359.661 441.773 358.936 441.239 358.36C440.706 357.763 440.045 357.315 439.255 357.016C438.466 356.717 437.549 356.568 436.503 356.568C435.479 356.568 434.573 356.717 433.783 357.016C432.994 357.315 432.333 357.763 431.799 358.36C431.266 358.936 430.861 359.661 430.583 360.536C430.327 361.411 430.199 362.413 430.199 363.544V364.536C430.199 365.645 430.327 366.637 430.583 367.512C430.861 368.365 431.266 369.091 431.799 369.688C432.333 370.285 432.994 370.733 433.783 371.032C434.573 371.331 435.479 371.48 436.503 371.48ZM458.294 375.384C456.588 375.384 455.233 374.915 454.23 373.976C453.228 373.037 452.726 371.523 452.726 369.432V358.168H457.174V368.696C457.174 369.251 457.238 369.72 457.366 370.104C457.494 370.467 457.676 370.765 457.91 371C458.166 371.235 458.476 371.405 458.838 371.512C459.201 371.619 459.606 371.672 460.054 371.672C460.716 371.672 461.313 371.512 461.846 371.192C462.38 370.872 462.796 370.435 463.094 369.88C463.393 369.304 463.542 368.664 463.542 367.96V358.168H467.99V375H464.342L464.022 372.696H463.798C463.393 373.229 462.913 373.699 462.358 374.104C461.825 374.509 461.217 374.819 460.534 375.032C459.852 375.267 459.105 375.384 458.294 375.384ZM478.697 375.384C477.63 375.384 476.766 375.192 476.105 374.808C475.444 374.424 474.964 373.912 474.665 373.272C474.366 372.611 474.217 371.885 474.217 371.096V361.592H472.137V358.168H474.377L475.209 353.368H478.665V358.168H481.737V361.592H478.665V370.36C478.665 370.872 478.782 371.267 479.017 371.544C479.252 371.8 479.636 371.928 480.169 371.928H481.737V374.872C481.481 374.957 481.182 375.032 480.841 375.096C480.5 375.181 480.137 375.245 479.753 375.288C479.369 375.352 479.017 375.384 478.697 375.384ZM499.116 375.384C498.049 375.384 497.185 375.192 496.524 374.808C495.862 374.424 495.382 373.912 495.084 373.272C494.785 372.611 494.636 371.885 494.636 371.096V361.592H492.556V358.168H494.796L495.628 353.368H499.084V358.168H502.156V361.592H499.084V370.36C499.084 370.872 499.201 371.267 499.436 371.544C499.67 371.8 500.054 371.928 500.588 371.928H502.156V374.872C501.9 374.957 501.601 375.032 501.26 375.096C500.918 375.181 500.556 375.245 500.172 375.288C499.788 375.352 499.436 375.384 499.116 375.384ZM514.373 375.384C512.539 375.384 510.981 375.075 509.701 374.456C508.421 373.816 507.451 372.845 506.789 371.544C506.128 370.221 505.797 368.568 505.797 366.584C505.797 364.557 506.128 362.904 506.789 361.624C507.451 360.323 508.421 359.363 509.701 358.744C510.981 358.104 512.539 357.784 514.373 357.784C516.251 357.784 517.819 358.104 519.077 358.744C520.357 359.363 521.328 360.323 521.989 361.624C522.651 362.904 522.981 364.557 522.981 366.584C522.981 368.568 522.651 370.221 521.989 371.544C521.328 372.845 520.357 373.816 519.077 374.456C517.819 375.075 516.251 375.384 514.373 375.384ZM514.373 371.928C515.355 371.928 516.133 371.747 516.709 371.384C517.307 371.021 517.744 370.467 518.021 369.72C518.299 368.973 518.437 368.056 518.437 366.968V366.2C518.437 365.112 518.299 364.195 518.021 363.448C517.744 362.701 517.307 362.147 516.709 361.784C516.133 361.4 515.355 361.208 514.373 361.208C513.413 361.208 512.635 361.4 512.037 361.784C511.461 362.147 511.035 362.701 510.757 363.448C510.48 364.195 510.341 365.112 510.341 366.2V366.968C510.341 368.056 510.48 368.973 510.757 369.72C511.035 370.467 511.461 371.021 512.037 371.384C512.635 371.747 513.413 371.928 514.373 371.928ZM545.624 375.384C543.618 375.384 541.89 375.064 540.44 374.424C539.01 373.784 537.912 372.824 537.144 371.544C536.376 370.243 535.992 368.632 535.992 366.712V353.048H540.792V366.584C540.792 368.163 541.208 369.379 542.04 370.232C542.872 371.064 544.066 371.48 545.624 371.48C547.181 371.48 548.376 371.064 549.208 370.232C550.061 369.379 550.488 368.163 550.488 366.584V353.048H555.288V366.712C555.288 368.632 554.904 370.243 554.136 371.544C553.368 372.824 552.258 373.784 550.808 374.424C549.378 375.064 547.65 375.384 545.624 375.384ZM568.089 375.384C566.916 375.384 565.86 375.256 564.921 375C563.982 374.744 563.182 374.392 562.521 373.944C561.86 373.475 561.348 372.92 560.985 372.28C560.644 371.64 560.473 370.915 560.473 370.104C560.473 370.019 560.473 369.933 560.473 369.848C560.473 369.763 560.484 369.699 560.505 369.656H564.793C564.793 369.699 564.793 369.741 564.793 369.784C564.793 369.827 564.793 369.869 564.793 369.912C564.814 370.445 564.985 370.883 565.305 371.224C565.625 371.544 566.041 371.779 566.553 371.928C567.086 372.077 567.641 372.152 568.217 372.152C568.729 372.152 569.22 372.109 569.689 372.024C570.18 371.917 570.585 371.736 570.905 371.48C571.246 371.224 571.417 370.893 571.417 370.488C571.417 369.976 571.204 369.581 570.777 369.304C570.372 369.027 569.828 368.803 569.145 368.632C568.484 368.461 567.758 368.269 566.969 368.056C566.244 367.885 565.518 367.693 564.793 367.48C564.068 367.245 563.406 366.947 562.809 366.584C562.233 366.221 561.764 365.752 561.401 365.176C561.038 364.579 560.857 363.832 560.857 362.936C560.857 362.061 561.049 361.304 561.433 360.664C561.817 360.003 562.34 359.459 563.001 359.032C563.684 358.605 564.473 358.296 565.369 358.104C566.286 357.891 567.268 357.784 568.313 357.784C569.294 357.784 570.212 357.891 571.065 358.104C571.918 358.296 572.665 358.595 573.305 359C573.945 359.384 574.446 359.875 574.809 360.472C575.172 361.048 575.353 361.699 575.353 362.424C575.353 362.573 575.353 362.712 575.353 362.84C575.353 362.968 575.342 363.053 575.321 363.096H571.065V362.84C571.065 362.456 570.948 362.136 570.713 361.88C570.478 361.603 570.137 361.389 569.689 361.24C569.262 361.091 568.74 361.016 568.121 361.016C567.694 361.016 567.3 361.048 566.937 361.112C566.596 361.176 566.297 361.272 566.041 361.4C565.785 361.528 565.582 361.688 565.433 361.88C565.305 362.051 565.241 362.264 565.241 362.52C565.241 362.883 565.39 363.181 565.689 363.416C566.009 363.629 566.425 363.811 566.937 363.96C567.449 364.109 568.014 364.269 568.633 364.44C569.401 364.653 570.201 364.867 571.033 365.08C571.886 365.272 572.676 365.539 573.401 365.88C574.126 366.221 574.713 366.712 575.161 367.352C575.609 367.971 575.833 368.813 575.833 369.88C575.833 370.904 575.63 371.768 575.225 372.472C574.841 373.176 574.297 373.741 573.593 374.168C572.889 374.595 572.068 374.904 571.129 375.096C570.19 375.288 569.177 375.384 568.089 375.384ZM589.303 375V361.592H586.903V358.168H589.303V356.312C589.303 355.395 589.453 354.584 589.751 353.88C590.071 353.155 590.573 352.589 591.255 352.184C591.938 351.779 592.845 351.576 593.975 351.576C594.295 351.576 594.626 351.597 594.967 351.64C595.33 351.683 595.671 351.747 595.991 351.832C596.333 351.896 596.621 351.971 596.855 352.056V355H595.255C594.743 355 594.359 355.128 594.103 355.384C593.869 355.64 593.751 356.013 593.751 356.504V358.168H596.855V361.592H593.751V375H589.303ZM608.129 375.384C606.295 375.384 604.737 375.075 603.457 374.456C602.177 373.816 601.207 372.845 600.545 371.544C599.884 370.221 599.553 368.568 599.553 366.584C599.553 364.557 599.884 362.904 600.545 361.624C601.207 360.323 602.177 359.363 603.457 358.744C604.737 358.104 606.295 357.784 608.129 357.784C610.007 357.784 611.575 358.104 612.833 358.744C614.113 359.363 615.084 360.323 615.745 361.624C616.407 362.904 616.737 364.557 616.737 366.584C616.737 368.568 616.407 370.221 615.745 371.544C615.084 372.845 614.113 373.816 612.833 374.456C611.575 375.075 610.007 375.384 608.129 375.384ZM608.129 371.928C609.111 371.928 609.889 371.747 610.465 371.384C611.063 371.021 611.5 370.467 611.777 369.72C612.055 368.973 612.193 368.056 612.193 366.968V366.2C612.193 365.112 612.055 364.195 611.777 363.448C611.5 362.701 611.063 362.147 610.465 361.784C609.889 361.4 609.111 361.208 608.129 361.208C607.169 361.208 606.391 361.4 605.793 361.784C605.217 362.147 604.791 362.701 604.513 363.448C604.236 364.195 604.097 365.112 604.097 366.2V366.968C604.097 368.056 604.236 368.973 604.513 369.72C604.791 370.467 605.217 371.021 605.793 371.384C606.391 371.747 607.169 371.928 608.129 371.928ZM621.611 375V358.168H625.291L625.643 360.792H625.867C626.08 360.237 626.357 359.736 626.699 359.288C627.04 358.819 627.467 358.445 627.979 358.168C628.491 357.891 629.088 357.752 629.771 357.752C630.133 357.752 630.464 357.795 630.763 357.88C631.061 357.944 631.285 358.008 631.435 358.072V362.104H630.059C629.397 362.104 628.811 362.2 628.299 362.392C627.808 362.563 627.392 362.84 627.051 363.224C626.709 363.608 626.453 364.077 626.283 364.632C626.133 365.187 626.059 365.837 626.059 366.584V375H621.611ZM651.551 375.384C650.271 375.384 649.055 375.256 647.903 375C646.751 374.744 645.727 374.339 644.831 373.784C643.956 373.208 643.263 372.493 642.751 371.64C642.26 370.765 642.015 369.709 642.015 368.472C642.015 368.365 642.015 368.259 642.015 368.152C642.015 368.024 642.026 367.928 642.047 367.864H646.783C646.762 367.928 646.751 368.013 646.751 368.12C646.751 368.227 646.751 368.323 646.751 368.408C646.751 369.091 646.932 369.667 647.295 370.136C647.679 370.605 648.234 370.957 648.959 371.192C649.684 371.427 650.527 371.544 651.487 371.544C652.106 371.544 652.65 371.512 653.119 371.448C653.61 371.363 654.036 371.256 654.399 371.128C654.783 370.979 655.092 370.808 655.327 370.616C655.583 370.424 655.764 370.2 655.871 369.944C655.999 369.688 656.063 369.4 656.063 369.08C656.063 368.504 655.871 368.035 655.487 367.672C655.124 367.309 654.612 367 653.951 366.744C653.311 366.488 652.586 366.253 651.775 366.04C650.964 365.827 650.132 365.613 649.279 365.4C648.426 365.165 647.594 364.888 646.783 364.568C645.972 364.227 645.247 363.821 644.607 363.352C643.967 362.883 643.455 362.285 643.071 361.56C642.687 360.835 642.495 359.96 642.495 358.936C642.495 357.848 642.719 356.909 643.167 356.12C643.636 355.331 644.287 354.68 645.119 354.168C645.951 353.656 646.911 353.283 647.999 353.048C649.087 352.792 650.271 352.664 651.551 352.664C652.746 352.664 653.876 352.792 654.943 353.048C656.01 353.283 656.948 353.667 657.759 354.2C658.57 354.733 659.199 355.405 659.647 356.216C660.116 357.027 660.351 357.987 660.351 359.096V359.48H655.711V359.224C655.711 358.648 655.54 358.157 655.199 357.752C654.858 357.347 654.378 357.027 653.759 356.792C653.14 356.557 652.415 356.44 651.583 356.44C650.687 356.44 649.919 356.525 649.279 356.696C648.66 356.867 648.18 357.123 647.839 357.464C647.519 357.784 647.359 358.168 647.359 358.616C647.359 359.128 647.54 359.555 647.903 359.896C648.287 360.216 648.799 360.504 649.439 360.76C650.1 360.995 650.836 361.208 651.647 361.4C652.458 361.592 653.29 361.805 654.143 362.04C654.996 362.275 655.828 362.552 656.639 362.872C657.45 363.192 658.175 363.597 658.815 364.088C659.455 364.557 659.967 365.144 660.351 365.848C660.735 366.552 660.927 367.395 660.927 368.376C660.927 370.061 660.522 371.416 659.711 372.44C658.9 373.464 657.791 374.211 656.383 374.68C654.975 375.149 653.364 375.384 651.551 375.384ZM673.59 375.384C671.734 375.384 670.176 375.075 668.918 374.456C667.659 373.816 666.71 372.845 666.07 371.544C665.43 370.243 665.11 368.589 665.11 366.584C665.11 364.557 665.43 362.904 666.07 361.624C666.71 360.323 667.648 359.363 668.886 358.744C670.144 358.104 671.68 357.784 673.494 357.784C675.2 357.784 676.64 358.093 677.814 358.712C678.987 359.309 679.872 360.248 680.47 361.528C681.067 362.787 681.366 364.419 681.366 366.424V367.576H669.622C669.664 368.557 669.814 369.389 670.07 370.072C670.347 370.755 670.763 371.267 671.318 371.608C671.894 371.928 672.651 372.088 673.59 372.088C674.102 372.088 674.56 372.024 674.966 371.896C675.392 371.768 675.755 371.576 676.054 371.32C676.352 371.064 676.587 370.744 676.758 370.36C676.928 369.976 677.014 369.539 677.014 369.048H681.366C681.366 370.115 681.174 371.043 680.79 371.832C680.406 372.621 679.872 373.283 679.19 373.816C678.507 374.328 677.686 374.723 676.726 375C675.787 375.256 674.742 375.384 673.59 375.384ZM669.686 364.76H676.79C676.79 364.12 676.704 363.565 676.534 363.096C676.384 362.627 676.171 362.243 675.894 361.944C675.616 361.645 675.275 361.432 674.87 361.304C674.486 361.155 674.048 361.08 673.558 361.08C672.747 361.08 672.064 361.219 671.51 361.496C670.976 361.752 670.56 362.157 670.262 362.712C669.984 363.245 669.792 363.928 669.686 364.76ZM690.677 375.384C690.123 375.384 689.525 375.32 688.885 375.192C688.267 375.064 687.68 374.84 687.125 374.52C686.571 374.179 686.112 373.699 685.749 373.08C685.408 372.44 685.237 371.629 685.237 370.648C685.237 369.475 685.493 368.504 686.005 367.736C686.517 366.968 687.243 366.371 688.181 365.944C689.141 365.496 690.283 365.187 691.605 365.016C692.928 364.845 694.389 364.76 695.989 364.76V363.512C695.989 363.021 695.904 362.595 695.733 362.232C695.584 361.869 695.307 361.581 694.901 361.368C694.517 361.155 693.973 361.048 693.269 361.048C692.565 361.048 691.989 361.133 691.541 361.304C691.115 361.475 690.805 361.699 690.613 361.976C690.443 362.232 690.357 362.52 690.357 362.84V363.224H686.037C686.016 363.117 686.005 363.021 686.005 362.936C686.005 362.829 686.005 362.701 686.005 362.552C686.005 361.571 686.304 360.728 686.901 360.024C687.499 359.299 688.341 358.744 689.429 358.36C690.517 357.976 691.787 357.784 693.237 357.784C694.795 357.784 696.096 357.987 697.141 358.392C698.208 358.797 699.019 359.395 699.573 360.184C700.149 360.973 700.437 361.965 700.437 363.16V370.808C700.437 371.192 700.544 371.48 700.757 371.672C700.992 371.843 701.248 371.928 701.525 371.928H702.581V374.84C702.368 374.947 702.037 375.053 701.589 375.16C701.141 375.288 700.597 375.352 699.957 375.352C699.339 375.352 698.784 375.256 698.293 375.064C697.824 374.893 697.429 374.648 697.109 374.328C696.789 373.987 696.565 373.581 696.437 373.112H696.213C695.851 373.56 695.403 373.955 694.869 374.296C694.357 374.637 693.749 374.904 693.045 375.096C692.363 375.288 691.573 375.384 690.677 375.384ZM692.181 372.024C692.779 372.024 693.312 371.939 693.781 371.768C694.251 371.576 694.645 371.331 694.965 371.032C695.285 370.712 695.531 370.328 695.701 369.88C695.893 369.432 695.989 368.952 695.989 368.44V367.512C694.795 367.512 693.728 367.597 692.789 367.768C691.851 367.917 691.104 368.184 690.549 368.568C690.016 368.952 689.749 369.485 689.749 370.168C689.749 370.552 689.845 370.883 690.037 371.16C690.229 371.437 690.507 371.651 690.869 371.8C691.232 371.949 691.669 372.024 692.181 372.024ZM706.392 375V358.168H710.072L710.424 360.472H710.648C711.01 359.917 711.437 359.437 711.928 359.032C712.44 358.627 713.005 358.317 713.624 358.104C714.264 357.891 714.946 357.784 715.672 357.784C716.738 357.784 717.656 357.997 718.424 358.424C719.213 358.851 719.821 359.533 720.248 360.472H720.472C720.834 359.917 721.272 359.437 721.784 359.032C722.296 358.627 722.882 358.317 723.544 358.104C724.205 357.891 724.909 357.784 725.656 357.784C726.722 357.784 727.64 357.976 728.408 358.36C729.197 358.744 729.816 359.373 730.264 360.248C730.712 361.101 730.936 362.211 730.936 363.576V375H726.488V364.376C726.488 363.843 726.424 363.395 726.296 363.032C726.189 362.648 726.029 362.349 725.816 362.136C725.602 361.901 725.336 361.731 725.016 361.624C724.696 361.517 724.354 361.464 723.992 361.464C723.394 361.464 722.861 361.624 722.392 361.944C721.922 362.264 721.549 362.701 721.272 363.256C721.016 363.811 720.888 364.451 720.888 365.176V375H716.44V364.376C716.44 363.843 716.376 363.395 716.248 363.032C716.141 362.648 715.981 362.349 715.768 362.136C715.554 361.901 715.288 361.731 714.968 361.624C714.669 361.517 714.328 361.464 713.944 361.464C713.368 361.464 712.834 361.624 712.344 361.944C711.874 362.264 711.501 362.701 711.224 363.256C710.968 363.811 710.84 364.451 710.84 365.176V375H706.392ZM736.492 375V351.864H740.94V375H736.492ZM754.271 375.384C752.415 375.384 750.858 375.075 749.599 374.456C748.34 373.816 747.391 372.845 746.751 371.544C746.111 370.243 745.791 368.589 745.791 366.584C745.791 364.557 746.111 362.904 746.751 361.624C747.391 360.323 748.33 359.363 749.567 358.744C750.826 358.104 752.362 357.784 754.175 357.784C755.882 357.784 757.322 358.093 758.495 358.712C759.668 359.309 760.554 360.248 761.151 361.528C761.748 362.787 762.047 364.419 762.047 366.424V367.576H750.303C750.346 368.557 750.495 369.389 750.751 370.072C751.028 370.755 751.444 371.267 751.999 371.608C752.575 371.928 753.332 372.088 754.271 372.088C754.783 372.088 755.242 372.024 755.647 371.896C756.074 371.768 756.436 371.576 756.735 371.32C757.034 371.064 757.268 370.744 757.439 370.36C757.61 369.976 757.695 369.539 757.695 369.048H762.047C762.047 370.115 761.855 371.043 761.471 371.832C761.087 372.621 760.554 373.283 759.871 373.816C759.188 374.328 758.367 374.723 757.407 375C756.468 375.256 755.423 375.384 754.271 375.384ZM750.367 364.76H757.471C757.471 364.12 757.386 363.565 757.215 363.096C757.066 362.627 756.852 362.243 756.575 361.944C756.298 361.645 755.956 361.432 755.551 361.304C755.167 361.155 754.73 361.08 754.239 361.08C753.428 361.08 752.746 361.219 752.191 361.496C751.658 361.752 751.242 362.157 750.943 362.712C750.666 363.245 750.474 363.928 750.367 364.76ZM773.726 375.384C772.553 375.384 771.497 375.256 770.558 375C769.62 374.744 768.82 374.392 768.158 373.944C767.497 373.475 766.985 372.92 766.622 372.28C766.281 371.64 766.11 370.915 766.11 370.104C766.11 370.019 766.11 369.933 766.11 369.848C766.11 369.763 766.121 369.699 766.142 369.656H770.43C770.43 369.699 770.43 369.741 770.43 369.784C770.43 369.827 770.43 369.869 770.43 369.912C770.452 370.445 770.622 370.883 770.942 371.224C771.262 371.544 771.678 371.779 772.19 371.928C772.724 372.077 773.278 372.152 773.854 372.152C774.366 372.152 774.857 372.109 775.326 372.024C775.817 371.917 776.222 371.736 776.542 371.48C776.884 371.224 777.054 370.893 777.054 370.488C777.054 369.976 776.841 369.581 776.414 369.304C776.009 369.027 775.465 368.803 774.782 368.632C774.121 368.461 773.396 368.269 772.606 368.056C771.881 367.885 771.156 367.693 770.43 367.48C769.705 367.245 769.044 366.947 768.446 366.584C767.87 366.221 767.401 365.752 767.038 365.176C766.676 364.579 766.494 363.832 766.494 362.936C766.494 362.061 766.686 361.304 767.07 360.664C767.454 360.003 767.977 359.459 768.638 359.032C769.321 358.605 770.11 358.296 771.006 358.104C771.924 357.891 772.905 357.784 773.95 357.784C774.932 357.784 775.849 357.891 776.702 358.104C777.556 358.296 778.302 358.595 778.942 359C779.582 359.384 780.084 359.875 780.446 360.472C780.809 361.048 780.99 361.699 780.99 362.424C780.99 362.573 780.99 362.712 780.99 362.84C780.99 362.968 780.98 363.053 780.958 363.096H776.702V362.84C776.702 362.456 776.585 362.136 776.35 361.88C776.116 361.603 775.774 361.389 775.326 361.24C774.9 361.091 774.377 361.016 773.758 361.016C773.332 361.016 772.937 361.048 772.574 361.112C772.233 361.176 771.934 361.272 771.678 361.4C771.422 361.528 771.22 361.688 771.07 361.88C770.942 362.051 770.878 362.264 770.878 362.52C770.878 362.883 771.028 363.181 771.326 363.416C771.646 363.629 772.062 363.811 772.574 363.96C773.086 364.109 773.652 364.269 774.27 364.44C775.038 364.653 775.838 364.867 776.67 365.08C777.524 365.272 778.313 365.539 779.038 365.88C779.764 366.221 780.35 366.712 780.798 367.352C781.246 367.971 781.47 368.813 781.47 369.88C781.47 370.904 781.268 371.768 780.862 372.472C780.478 373.176 779.934 373.741 779.23 374.168C778.526 374.595 777.705 374.904 776.766 375.096C775.828 375.288 774.814 375.384 773.726 375.384ZM793.108 375.384C791.934 375.384 790.878 375.256 789.94 375C789.001 374.744 788.201 374.392 787.54 373.944C786.878 373.475 786.366 372.92 786.004 372.28C785.662 371.64 785.492 370.915 785.492 370.104C785.492 370.019 785.492 369.933 785.492 369.848C785.492 369.763 785.502 369.699 785.524 369.656H789.812C789.812 369.699 789.812 369.741 789.812 369.784C789.812 369.827 789.812 369.869 789.812 369.912C789.833 370.445 790.004 370.883 790.324 371.224C790.644 371.544 791.06 371.779 791.572 371.928C792.105 372.077 792.66 372.152 793.236 372.152C793.748 372.152 794.238 372.109 794.708 372.024C795.198 371.917 795.604 371.736 795.924 371.48C796.265 371.224 796.436 370.893 796.436 370.488C796.436 369.976 796.222 369.581 795.796 369.304C795.39 369.027 794.846 368.803 794.164 368.632C793.502 368.461 792.777 368.269 791.988 368.056C791.262 367.885 790.537 367.693 789.812 367.48C789.086 367.245 788.425 366.947 787.828 366.584C787.252 366.221 786.782 365.752 786.42 365.176C786.057 364.579 785.876 363.832 785.876 362.936C785.876 362.061 786.068 361.304 786.452 360.664C786.836 360.003 787.358 359.459 788.02 359.032C788.702 358.605 789.492 358.296 790.388 358.104C791.305 357.891 792.286 357.784 793.332 357.784C794.313 357.784 795.23 357.891 796.084 358.104C796.937 358.296 797.684 358.595 798.324 359C798.964 359.384 799.465 359.875 799.828 360.472C800.19 361.048 800.372 361.699 800.372 362.424C800.372 362.573 800.372 362.712 800.372 362.84C800.372 362.968 800.361 363.053 800.34 363.096H796.084V362.84C796.084 362.456 795.966 362.136 795.732 361.88C795.497 361.603 795.156 361.389 794.708 361.24C794.281 361.091 793.758 361.016 793.14 361.016C792.713 361.016 792.318 361.048 791.956 361.112C791.614 361.176 791.316 361.272 791.06 361.4C790.804 361.528 790.601 361.688 790.452 361.88C790.324 362.051 790.26 362.264 790.26 362.52C790.26 362.883 790.409 363.181 790.708 363.416C791.028 363.629 791.444 363.811 791.956 363.96C792.468 364.109 793.033 364.269 793.652 364.44C794.42 364.653 795.22 364.867 796.052 365.08C796.905 365.272 797.694 365.539 798.42 365.88C799.145 366.221 799.732 366.712 800.18 367.352C800.628 367.971 800.852 368.813 800.852 369.88C800.852 370.904 800.649 371.768 800.244 372.472C799.86 373.176 799.316 373.741 798.612 374.168C797.908 374.595 797.086 374.904 796.148 375.096C795.209 375.288 794.196 375.384 793.108 375.384ZM823.762 375.384C821.48 375.384 819.528 374.989 817.906 374.2C816.285 373.389 815.048 372.141 814.194 370.456C813.362 368.771 812.946 366.627 812.946 364.024C812.946 360.184 813.885 357.336 815.762 355.48C817.661 353.603 820.328 352.664 823.762 352.664C825.64 352.664 827.325 352.984 828.818 353.624C830.312 354.264 831.485 355.224 832.338 356.504C833.213 357.784 833.65 359.395 833.65 361.336H828.85C828.85 360.312 828.637 359.448 828.21 358.744C827.805 358.04 827.218 357.507 826.45 357.144C825.704 356.76 824.829 356.568 823.826 356.568C822.461 356.568 821.33 356.835 820.434 357.368C819.56 357.901 818.909 358.691 818.482 359.736C818.077 360.76 817.874 362.019 817.874 363.512V364.504C817.874 366.04 818.088 367.331 818.514 368.376C818.941 369.4 819.581 370.179 820.434 370.712C821.309 371.224 822.429 371.48 823.794 371.48C824.861 371.48 825.789 371.299 826.578 370.936C827.368 370.573 827.976 370.04 828.402 369.336C828.829 368.632 829.042 367.768 829.042 366.744H833.65C833.65 368.685 833.224 370.296 832.37 371.576C831.538 372.856 830.376 373.816 828.882 374.456C827.389 375.075 825.682 375.384 823.762 375.384ZM846.367 375.384C844.532 375.384 842.975 375.075 841.695 374.456C840.415 373.816 839.444 372.845 838.783 371.544C838.122 370.221 837.791 368.568 837.791 366.584C837.791 364.557 838.122 362.904 838.783 361.624C839.444 360.323 840.415 359.363 841.695 358.744C842.975 358.104 844.532 357.784 846.367 357.784C848.244 357.784 849.812 358.104 851.071 358.744C852.351 359.363 853.322 360.323 853.983 361.624C854.644 362.904 854.975 364.557 854.975 366.584C854.975 368.568 854.644 370.221 853.983 371.544C853.322 372.845 852.351 373.816 851.071 374.456C849.812 375.075 848.244 375.384 846.367 375.384ZM846.367 371.928C847.348 371.928 848.127 371.747 848.703 371.384C849.3 371.021 849.738 370.467 850.015 369.72C850.292 368.973 850.431 368.056 850.431 366.968V366.2C850.431 365.112 850.292 364.195 850.015 363.448C849.738 362.701 849.3 362.147 848.703 361.784C848.127 361.4 847.348 361.208 846.367 361.208C845.407 361.208 844.628 361.4 844.031 361.784C843.455 362.147 843.028 362.701 842.751 363.448C842.474 364.195 842.335 365.112 842.335 366.2V366.968C842.335 368.056 842.474 368.973 842.751 369.72C843.028 370.467 843.455 371.021 844.031 371.384C844.628 371.747 845.407 371.928 846.367 371.928ZM865.288 375.384C863.581 375.384 862.227 374.915 861.224 373.976C860.221 373.037 859.72 371.523 859.72 369.432V358.168H864.168V368.696C864.168 369.251 864.232 369.72 864.36 370.104C864.488 370.467 864.669 370.765 864.904 371C865.16 371.235 865.469 371.405 865.832 371.512C866.195 371.619 866.6 371.672 867.048 371.672C867.709 371.672 868.307 371.512 868.84 371.192C869.373 370.872 869.789 370.435 870.088 369.88C870.387 369.304 870.536 368.664 870.536 367.96V358.168H874.984V375H871.336L871.016 372.696H870.792C870.387 373.229 869.907 373.699 869.352 374.104C868.819 374.509 868.211 374.819 867.528 375.032C866.845 375.267 866.099 375.384 865.288 375.384ZM880.667 375V358.168H884.347L884.699 360.792H884.923C885.136 360.237 885.413 359.736 885.755 359.288C886.096 358.819 886.523 358.445 887.035 358.168C887.547 357.891 888.144 357.752 888.827 357.752C889.189 357.752 889.52 357.795 889.819 357.88C890.117 357.944 890.341 358.008 890.491 358.072V362.104H889.115C888.453 362.104 887.867 362.2 887.355 362.392C886.864 362.563 886.448 362.84 886.107 363.224C885.765 363.608 885.509 364.077 885.339 364.632C885.189 365.187 885.115 365.837 885.115 366.584V375H880.667ZM894.423 355.704V351.864H898.871V355.704H894.423ZM894.423 375V358.168H898.871V375H894.423ZM912.202 375.384C910.346 375.384 908.789 375.075 907.53 374.456C906.272 373.816 905.322 372.845 904.682 371.544C904.042 370.243 903.722 368.589 903.722 366.584C903.722 364.557 904.042 362.904 904.682 361.624C905.322 360.323 906.261 359.363 907.498 358.744C908.757 358.104 910.293 357.784 912.106 357.784C913.813 357.784 915.253 358.093 916.426 358.712C917.6 359.309 918.485 360.248 919.082 361.528C919.68 362.787 919.978 364.419 919.978 366.424V367.576H908.234C908.277 368.557 908.426 369.389 908.682 370.072C908.96 370.755 909.376 371.267 909.93 371.608C910.506 371.928 911.264 372.088 912.202 372.088C912.714 372.088 913.173 372.024 913.578 371.896C914.005 371.768 914.368 371.576 914.666 371.32C914.965 371.064 915.2 370.744 915.37 370.36C915.541 369.976 915.626 369.539 915.626 369.048H919.978C919.978 370.115 919.786 371.043 919.402 371.832C919.018 372.621 918.485 373.283 917.802 373.816C917.12 374.328 916.298 374.723 915.338 375C914.4 375.256 913.354 375.384 912.202 375.384ZM908.298 364.76H915.402C915.402 364.12 915.317 363.565 915.146 363.096C914.997 362.627 914.784 362.243 914.506 361.944C914.229 361.645 913.888 361.432 913.482 361.304C913.098 361.155 912.661 361.08 912.17 361.08C911.36 361.08 910.677 361.219 910.122 361.496C909.589 361.752 909.173 362.157 908.874 362.712C908.597 363.245 908.405 363.928 908.298 364.76ZM924.842 375V358.168H928.522L928.874 360.792H929.098C929.311 360.237 929.588 359.736 929.93 359.288C930.271 358.819 930.698 358.445 931.21 358.168C931.722 357.891 932.319 357.752 933.002 357.752C933.364 357.752 933.695 357.795 933.994 357.88C934.292 357.944 934.516 358.008 934.666 358.072V362.104H933.29C932.628 362.104 932.042 362.2 931.53 362.392C931.039 362.563 930.623 362.84 930.282 363.224C929.94 363.608 929.684 364.077 929.514 364.632C929.364 365.187 929.29 365.837 929.29 366.584V375H924.842ZM954.782 375.384C953.502 375.384 952.286 375.256 951.134 375C949.982 374.744 948.958 374.339 948.062 373.784C947.188 373.208 946.494 372.493 945.982 371.64C945.492 370.765 945.246 369.709 945.246 368.472C945.246 368.365 945.246 368.259 945.246 368.152C945.246 368.024 945.257 367.928 945.278 367.864H950.014C949.993 367.928 949.982 368.013 949.982 368.12C949.982 368.227 949.982 368.323 949.982 368.408C949.982 369.091 950.164 369.667 950.526 370.136C950.91 370.605 951.465 370.957 952.19 371.192C952.916 371.427 953.758 371.544 954.718 371.544C955.337 371.544 955.881 371.512 956.35 371.448C956.841 371.363 957.268 371.256 957.63 371.128C958.014 370.979 958.324 370.808 958.558 370.616C958.814 370.424 958.996 370.2 959.102 369.944C959.23 369.688 959.294 369.4 959.294 369.08C959.294 368.504 959.102 368.035 958.718 367.672C958.356 367.309 957.844 367 957.182 366.744C956.542 366.488 955.817 366.253 955.006 366.04C954.196 365.827 953.364 365.613 952.51 365.4C951.657 365.165 950.825 364.888 950.014 364.568C949.204 364.227 948.478 363.821 947.838 363.352C947.198 362.883 946.686 362.285 946.302 361.56C945.918 360.835 945.726 359.96 945.726 358.936C945.726 357.848 945.95 356.909 946.398 356.12C946.868 355.331 947.518 354.68 948.35 354.168C949.182 353.656 950.142 353.283 951.23 353.048C952.318 352.792 953.502 352.664 954.782 352.664C955.977 352.664 957.108 352.792 958.174 353.048C959.241 353.283 960.18 353.667 960.99 354.2C961.801 354.733 962.43 355.405 962.878 356.216C963.348 357.027 963.582 357.987 963.582 359.096V359.48H958.942V359.224C958.942 358.648 958.772 358.157 958.43 357.752C958.089 357.347 957.609 357.027 956.99 356.792C956.372 356.557 955.646 356.44 954.814 356.44C953.918 356.44 953.15 356.525 952.51 356.696C951.892 356.867 951.412 357.123 951.07 357.464C950.75 357.784 950.59 358.168 950.59 358.616C950.59 359.128 950.772 359.555 951.134 359.896C951.518 360.216 952.03 360.504 952.67 360.76C953.332 360.995 954.068 361.208 954.878 361.4C955.689 361.592 956.521 361.805 957.374 362.04C958.228 362.275 959.06 362.552 959.87 362.872C960.681 363.192 961.406 363.597 962.046 364.088C962.686 364.557 963.198 365.144 963.582 365.848C963.966 366.552 964.158 367.395 964.158 368.376C964.158 370.061 963.753 371.416 962.942 372.44C962.132 373.464 961.022 374.211 959.614 374.68C958.206 375.149 956.596 375.384 954.782 375.384ZM976.917 375.384C975.082 375.384 973.525 375.075 972.245 374.456C970.965 373.816 969.994 372.845 969.333 371.544C968.672 370.221 968.341 368.568 968.341 366.584C968.341 364.557 968.672 362.904 969.333 361.624C969.994 360.323 970.965 359.363 972.245 358.744C973.525 358.104 975.082 357.784 976.917 357.784C978.794 357.784 980.362 358.104 981.621 358.744C982.901 359.363 983.872 360.323 984.533 361.624C985.194 362.904 985.525 364.557 985.525 366.584C985.525 368.568 985.194 370.221 984.533 371.544C983.872 372.845 982.901 373.816 981.621 374.456C980.362 375.075 978.794 375.384 976.917 375.384ZM976.917 371.928C977.898 371.928 978.677 371.747 979.253 371.384C979.85 371.021 980.288 370.467 980.565 369.72C980.842 368.973 980.981 368.056 980.981 366.968V366.2C980.981 365.112 980.842 364.195 980.565 363.448C980.288 362.701 979.85 362.147 979.253 361.784C978.677 361.4 977.898 361.208 976.917 361.208C975.957 361.208 975.178 361.4 974.581 361.784C974.005 362.147 973.578 362.701 973.301 363.448C973.024 364.195 972.885 365.112 972.885 366.2V366.968C972.885 368.056 973.024 368.973 973.301 369.72C973.578 370.467 974.005 371.021 974.581 371.384C975.178 371.747 975.957 371.928 976.917 371.928ZM990.398 375V351.864H994.846V375H990.398ZM1005.97 375.384C1004.26 375.384 1002.91 374.915 1001.91 373.976C1000.9 373.037 1000.4 371.523 1000.4 369.432V358.168H1004.85V368.696C1004.85 369.251 1004.91 369.72 1005.04 370.104C1005.17 370.467 1005.35 370.765 1005.59 371C1005.84 371.235 1006.15 371.405 1006.51 371.512C1006.88 371.619 1007.28 371.672 1007.73 371.672C1008.39 371.672 1008.99 371.512 1009.52 371.192C1010.05 370.872 1010.47 370.435 1010.77 369.88C1011.07 369.304 1011.22 368.664 1011.22 367.96V358.168H1015.67V375H1012.02L1011.7 372.696H1011.47C1011.07 373.229 1010.59 373.699 1010.03 374.104C1009.5 374.509 1008.89 374.819 1008.21 375.032C1007.53 375.267 1006.78 375.384 1005.97 375.384ZM1026.37 375.384C1025.31 375.384 1024.44 375.192 1023.78 374.808C1023.12 374.424 1022.64 373.912 1022.34 373.272C1022.04 372.611 1021.89 371.885 1021.89 371.096V361.592H1019.81V358.168H1022.05L1022.88 353.368H1026.34V358.168H1029.41V361.592H1026.34V370.36C1026.34 370.872 1026.46 371.267 1026.69 371.544C1026.93 371.8 1027.31 371.928 1027.84 371.928H1029.41V374.872C1029.16 374.957 1028.86 375.032 1028.52 375.096C1028.17 375.181 1027.81 375.245 1027.43 375.288C1027.04 375.352 1026.69 375.384 1026.37 375.384ZM1033.89 355.704V351.864H1038.33V355.704H1033.89ZM1033.89 375V358.168H1038.33V375H1033.89ZM1051.76 375.384C1049.93 375.384 1048.37 375.075 1047.09 374.456C1045.81 373.816 1044.84 372.845 1044.18 371.544C1043.52 370.221 1043.18 368.568 1043.18 366.584C1043.18 364.557 1043.52 362.904 1044.18 361.624C1044.84 360.323 1045.81 359.363 1047.09 358.744C1048.37 358.104 1049.93 357.784 1051.76 357.784C1053.64 357.784 1055.21 358.104 1056.46 358.744C1057.74 359.363 1058.72 360.323 1059.38 361.624C1060.04 362.904 1060.37 364.557 1060.37 366.584C1060.37 368.568 1060.04 370.221 1059.38 371.544C1058.72 372.845 1057.74 373.816 1056.46 374.456C1055.21 375.075 1053.64 375.384 1051.76 375.384ZM1051.76 371.928C1052.74 371.928 1053.52 371.747 1054.1 371.384C1054.69 371.021 1055.13 370.467 1055.41 369.72C1055.69 368.973 1055.82 368.056 1055.82 366.968V366.2C1055.82 365.112 1055.69 364.195 1055.41 363.448C1055.13 362.701 1054.69 362.147 1054.1 361.784C1053.52 361.4 1052.74 361.208 1051.76 361.208C1050.8 361.208 1050.02 361.4 1049.42 361.784C1048.85 362.147 1048.42 362.701 1048.14 363.448C1047.87 364.195 1047.73 365.112 1047.73 366.2V366.968C1047.73 368.056 1047.87 368.973 1048.14 369.72C1048.42 370.467 1048.85 371.021 1049.42 371.384C1050.02 371.747 1050.8 371.928 1051.76 371.928ZM1065.24 375V358.168H1068.92L1069.27 360.472H1069.5C1069.88 359.917 1070.34 359.437 1070.87 359.032C1071.43 358.627 1072.05 358.317 1072.73 358.104C1073.41 357.891 1074.16 357.784 1074.97 357.784C1076.08 357.784 1077.05 357.987 1077.88 358.392C1078.71 358.797 1079.35 359.437 1079.8 360.312C1080.27 361.187 1080.51 362.328 1080.51 363.736V375H1076.06V364.44C1076.06 363.907 1075.99 363.459 1075.87 363.096C1075.74 362.712 1075.55 362.403 1075.29 362.168C1075.06 361.912 1074.76 361.731 1074.39 361.624C1074.03 361.517 1073.63 361.464 1073.18 361.464C1072.52 361.464 1071.92 361.624 1071.39 361.944C1070.85 362.264 1070.44 362.701 1070.14 363.256C1069.84 363.811 1069.69 364.451 1069.69 365.176V375H1065.24ZM1092.91 375.384C1091.73 375.384 1090.68 375.256 1089.74 375C1088.8 374.744 1088 374.392 1087.34 373.944C1086.68 373.475 1086.17 372.92 1085.8 372.28C1085.46 371.64 1085.29 370.915 1085.29 370.104C1085.29 370.019 1085.29 369.933 1085.29 369.848C1085.29 369.763 1085.3 369.699 1085.32 369.656H1089.61C1089.61 369.699 1089.61 369.741 1089.61 369.784C1089.61 369.827 1089.61 369.869 1089.61 369.912C1089.63 370.445 1089.8 370.883 1090.12 371.224C1090.44 371.544 1090.86 371.779 1091.37 371.928C1091.91 372.077 1092.46 372.152 1093.04 372.152C1093.55 372.152 1094.04 372.109 1094.51 372.024C1095 371.917 1095.4 371.736 1095.72 371.48C1096.07 371.224 1096.24 370.893 1096.24 370.488C1096.24 369.976 1096.02 369.581 1095.6 369.304C1095.19 369.027 1094.65 368.803 1093.96 368.632C1093.3 368.461 1092.58 368.269 1091.79 368.056C1091.06 367.885 1090.34 367.693 1089.61 367.48C1088.89 367.245 1088.23 366.947 1087.63 366.584C1087.05 366.221 1086.58 365.752 1086.22 365.176C1085.86 364.579 1085.68 363.832 1085.68 362.936C1085.68 362.061 1085.87 361.304 1086.25 360.664C1086.64 360.003 1087.16 359.459 1087.82 359.032C1088.5 358.605 1089.29 358.296 1090.19 358.104C1091.11 357.891 1092.09 357.784 1093.13 357.784C1094.11 357.784 1095.03 357.891 1095.88 358.104C1096.74 358.296 1097.48 358.595 1098.12 359C1098.76 359.384 1099.27 359.875 1099.63 360.472C1099.99 361.048 1100.17 361.699 1100.17 362.424C1100.17 362.573 1100.17 362.712 1100.17 362.84C1100.17 362.968 1100.16 363.053 1100.14 363.096H1095.88V362.84C1095.88 362.456 1095.77 362.136 1095.53 361.88C1095.3 361.603 1094.96 361.389 1094.51 361.24C1094.08 361.091 1093.56 361.016 1092.94 361.016C1092.51 361.016 1092.12 361.048 1091.76 361.112C1091.41 361.176 1091.12 361.272 1090.86 361.4C1090.6 361.528 1090.4 361.688 1090.25 361.88C1090.12 362.051 1090.06 362.264 1090.06 362.52C1090.06 362.883 1090.21 363.181 1090.51 363.416C1090.83 363.629 1091.24 363.811 1091.76 363.96C1092.27 364.109 1092.83 364.269 1093.45 364.44C1094.22 364.653 1095.02 364.867 1095.85 365.08C1096.71 365.272 1097.49 365.539 1098.22 365.88C1098.95 366.221 1099.53 366.712 1099.98 367.352C1100.43 367.971 1100.65 368.813 1100.65 369.88C1100.65 370.904 1100.45 371.768 1100.04 372.472C1099.66 373.176 1099.12 373.741 1098.41 374.168C1097.71 374.595 1096.89 374.904 1095.95 375.096C1095.01 375.288 1094 375.384 1092.91 375.384ZM1105.57 362.84V361.048C1106.08 360.963 1106.51 360.76 1106.85 360.44C1107.21 360.099 1107.48 359.672 1107.65 359.16C1107.84 358.627 1107.94 358.061 1107.94 357.464H1105.76V353.048H1110.21V357.048C1110.21 358.307 1109.98 359.341 1109.54 360.152C1109.11 360.963 1108.54 361.581 1107.84 362.008C1107.14 362.435 1106.38 362.712 1105.57 362.84ZM1112.22 362.84V361.048C1112.74 360.963 1113.16 360.76 1113.5 360.44C1113.87 360.099 1114.13 359.672 1114.3 359.16C1114.5 358.627 1114.59 358.061 1114.59 357.464H1112.42V353.048H1116.9V357.048C1116.9 358.307 1116.67 359.341 1116.22 360.152C1115.78 360.963 1115.2 361.581 1114.5 362.008C1113.79 362.435 1113.04 362.712 1112.22 362.84Z" fill="black" fill-opacity="0.92"/>
<path d="M579.584 314V290.676H584.004V310.158H595.7V314H579.584ZM610.355 314.408C607.93 314.408 605.833 313.977 604.065 313.116C602.297 312.232 600.937 310.895 599.985 309.104C599.056 307.313 598.591 305.058 598.591 302.338C598.591 299.595 599.056 297.34 599.985 295.572C600.937 293.781 602.297 292.455 604.065 291.594C605.833 290.71 607.93 290.268 610.355 290.268C612.803 290.268 614.9 290.71 616.645 291.594C618.413 292.455 619.762 293.781 620.691 295.572C621.643 297.34 622.119 299.595 622.119 302.338C622.119 305.058 621.643 307.313 620.691 309.104C619.762 310.895 618.413 312.232 616.645 313.116C614.9 313.977 612.803 314.408 610.355 314.408ZM610.355 310.668C611.534 310.668 612.565 310.498 613.449 310.158C614.356 309.818 615.115 309.319 615.727 308.662C616.339 307.982 616.804 307.155 617.121 306.18C617.439 305.183 617.597 304.038 617.597 302.746V301.998C617.597 300.683 617.439 299.527 617.121 298.53C616.804 297.533 616.339 296.705 615.727 296.048C615.115 295.368 614.356 294.858 613.449 294.518C612.565 294.178 611.534 294.008 610.355 294.008C609.177 294.008 608.134 294.178 607.227 294.518C606.343 294.858 605.595 295.368 604.983 296.048C604.371 296.705 603.907 297.533 603.589 298.53C603.295 299.527 603.147 300.683 603.147 301.998V302.746C603.147 304.038 603.295 305.183 603.589 306.18C603.907 307.155 604.371 307.982 604.983 308.662C605.595 309.319 606.343 309.818 607.227 310.158C608.134 310.498 609.177 310.668 610.355 310.668ZM627.941 314V290.676H640.215C641.938 290.676 643.366 290.971 644.499 291.56C645.632 292.149 646.482 292.988 647.049 294.076C647.616 295.164 647.899 296.445 647.899 297.918C647.899 299.437 647.559 300.785 646.879 301.964C646.199 303.12 645.202 303.993 643.887 304.582L648.715 314H643.887L639.603 305.33H632.361V314H627.941ZM632.361 301.624H639.875C641.008 301.624 641.881 301.295 642.493 300.638C643.105 299.981 643.411 299.074 643.411 297.918C643.411 297.17 643.275 296.547 643.003 296.048C642.731 295.527 642.334 295.13 641.813 294.858C641.292 294.586 640.646 294.45 639.875 294.45H632.361V301.624ZM654.012 314V290.676H672.202V294.45H658.432V300.196H670.706V303.97H658.432V310.226H672.406V314H654.012ZM678.556 314V290.676H685.526L689.198 303.664C689.334 304.117 689.47 304.627 689.606 305.194C689.742 305.761 689.867 306.305 689.98 306.826C690.116 307.347 690.218 307.801 690.286 308.186H690.558C690.603 307.846 690.671 307.427 690.762 306.928C690.853 306.429 690.955 305.897 691.068 305.33C691.204 304.741 691.351 304.174 691.51 303.63L695.182 290.676H702.084V314H697.664V302.202C697.664 301.159 697.675 300.117 697.698 299.074C697.721 298.031 697.743 297.136 697.766 296.388C697.811 295.64 697.834 295.198 697.834 295.062H697.562C697.517 295.266 697.403 295.708 697.222 296.388C697.041 297.068 696.848 297.805 696.644 298.598C696.44 299.391 696.259 300.071 696.1 300.638L692.258 314H688.178L684.336 300.672C684.2 300.196 684.041 299.629 683.86 298.972C683.701 298.292 683.531 297.601 683.35 296.898C683.191 296.195 683.044 295.583 682.908 295.062H682.636C682.659 295.674 682.681 296.411 682.704 297.272C682.727 298.111 682.749 298.972 682.772 299.856C682.795 300.717 682.806 301.499 682.806 302.202V314H678.556ZM717.45 314V290.676H721.87V314H717.45ZM728.746 314V290.676H740.442C742.164 290.676 743.581 290.982 744.692 291.594C745.825 292.206 746.675 293.067 747.242 294.178C747.808 295.289 748.092 296.615 748.092 298.156C748.092 299.675 747.797 301.001 747.208 302.134C746.618 303.267 745.734 304.151 744.556 304.786C743.4 305.398 741.949 305.704 740.204 305.704H733.166V314H728.746ZM733.166 301.93H740.068C741.201 301.93 742.074 301.601 742.686 300.944C743.32 300.264 743.638 299.335 743.638 298.156C743.638 297.363 743.502 296.694 743.23 296.15C742.958 295.606 742.561 295.187 742.04 294.892C741.518 294.597 740.861 294.45 740.068 294.45H733.166V301.93ZM761.927 314.408C760.635 314.408 759.4 314.272 758.221 314C757.042 313.705 756 313.263 755.093 312.674C754.186 312.062 753.472 311.314 752.951 310.43C752.43 309.523 752.169 308.458 752.169 307.234C752.169 307.098 752.169 306.962 752.169 306.826C752.192 306.69 752.203 306.588 752.203 306.52H756.657C756.657 306.565 756.646 306.656 756.623 306.792C756.623 306.905 756.623 307.007 756.623 307.098C756.623 307.846 756.838 308.492 757.269 309.036C757.7 309.557 758.323 309.965 759.139 310.26C759.955 310.532 760.918 310.668 762.029 310.668C762.777 310.668 763.434 310.623 764.001 310.532C764.59 310.441 765.089 310.317 765.497 310.158C765.928 309.977 766.279 309.773 766.551 309.546C766.823 309.297 767.016 309.025 767.129 308.73C767.265 308.435 767.333 308.118 767.333 307.778C767.333 307.121 767.129 306.577 766.721 306.146C766.313 305.715 765.758 305.353 765.055 305.058C764.375 304.763 763.593 304.503 762.709 304.276C761.848 304.027 760.952 303.777 760.023 303.528C759.116 303.279 758.221 302.984 757.337 302.644C756.476 302.281 755.694 301.851 754.991 301.352C754.311 300.853 753.767 300.23 753.359 299.482C752.951 298.711 752.747 297.793 752.747 296.728C752.747 295.64 752.974 294.688 753.427 293.872C753.903 293.056 754.56 292.387 755.399 291.866C756.26 291.322 757.258 290.925 758.391 290.676C759.524 290.404 760.76 290.268 762.097 290.268C763.344 290.268 764.511 290.404 765.599 290.676C766.71 290.925 767.684 291.333 768.523 291.9C769.362 292.444 770.019 293.147 770.495 294.008C770.971 294.847 771.209 295.855 771.209 297.034V297.442H766.823V297.102C766.823 296.445 766.619 295.889 766.211 295.436C765.826 294.983 765.27 294.631 764.545 294.382C763.842 294.133 763.015 294.008 762.063 294.008C761.043 294.008 760.17 294.11 759.445 294.314C758.72 294.495 758.164 294.779 757.779 295.164C757.394 295.527 757.201 295.98 757.201 296.524C757.201 297.091 757.405 297.567 757.813 297.952C758.221 298.337 758.765 298.666 759.445 298.938C760.148 299.21 760.93 299.459 761.791 299.686C762.675 299.913 763.57 300.162 764.477 300.434C765.406 300.683 766.302 300.978 767.163 301.318C768.047 301.658 768.829 302.089 769.509 302.61C770.212 303.109 770.767 303.732 771.175 304.48C771.583 305.228 771.787 306.123 771.787 307.166C771.787 308.911 771.356 310.317 770.495 311.382C769.656 312.447 768.489 313.218 766.993 313.694C765.52 314.17 763.831 314.408 761.927 314.408ZM787.291 314.408C785.251 314.408 783.494 314.079 782.021 313.422C780.547 312.765 779.414 311.767 778.621 310.43C777.85 309.07 777.465 307.381 777.465 305.364V290.676H781.885V305.228C781.885 307.019 782.349 308.379 783.279 309.308C784.231 310.215 785.568 310.668 787.291 310.668C789.013 310.668 790.351 310.215 791.303 309.308C792.277 308.379 792.765 307.019 792.765 305.228V290.676H797.185V305.364C797.185 307.381 796.788 309.07 795.995 310.43C795.201 311.767 794.068 312.765 792.595 313.422C791.121 314.079 789.353 314.408 787.291 314.408ZM803.904 314V290.676H810.874L814.546 303.664C814.682 304.117 814.818 304.627 814.954 305.194C815.09 305.761 815.215 306.305 815.328 306.826C815.464 307.347 815.566 307.801 815.634 308.186H815.906C815.952 307.846 816.02 307.427 816.11 306.928C816.201 306.429 816.303 305.897 816.416 305.33C816.552 304.741 816.7 304.174 816.858 303.63L820.53 290.676H827.432V314H823.012V302.202C823.012 301.159 823.024 300.117 823.046 299.074C823.069 298.031 823.092 297.136 823.114 296.388C823.16 295.64 823.182 295.198 823.182 295.062H822.91C822.865 295.266 822.752 295.708 822.57 296.388C822.389 297.068 822.196 297.805 821.992 298.598C821.788 299.391 821.607 300.071 821.448 300.638L817.606 314H813.526L809.684 300.672C809.548 300.196 809.39 299.629 809.208 298.972C809.05 298.292 808.88 297.601 808.698 296.898C808.54 296.195 808.392 295.583 808.256 295.062H807.984C808.007 295.674 808.03 296.411 808.052 297.272C808.075 298.111 808.098 298.972 808.12 299.856C808.143 300.717 808.154 301.499 808.154 302.202V314H803.904Z" fill="black"/>
</g>
<defs>
<filter id="filter0_d_608_1545" x="-181.6" y="0.399994" width="1800.2" height="827.2" filterUnits="userSpaceOnUse" color-interpolation-filters="sRGB">
<feFlood flood-opacity="0" result="BackgroundImageFix"/>
<feColorMatrix in="SourceAlpha" type="matrix" values="0 0 0 0 0 0 0 0 0 0 0 0 0 0 0 0 0 0 127 0" result="hardAlpha"/>
<feOffset/>
<feGaussianBlur stdDeviation="121.3"/>
<feComposite in2="hardAlpha" operator="out"/>
<feColorMatrix type="matrix" values="0 0 0 0 0.86 0 0 0 0 0 0 0 0 0 1 0 0 0 0.55 0"/>
<feBlend mode="normal" in2="BackgroundImageFix" result="effect1_dropShadow_608_1545"/>
<feBlend mode="normal" in="SourceGraphic" in2="effect1_dropShadow_608_1545" result="shape"/>
</filter>
<filter id="filter1_d_608_1545" x="284.3" y="405.3" width="867.4" height="115.4" filterUnits="userSpaceOnUse" color-interpolation-filters="sRGB">
<feFlood flood-opacity="0" result="BackgroundImageFix"/>
<feColorMatrix in="SourceAlpha" type="matrix" values="0 0 0 0 0 0 0 0 0 0 0 0 0 0 0 0 0 0 127 0" result="hardAlpha"/>
<feOffset dx="4"/>
<feGaussianBlur stdDeviation="8.1"/>
<feComposite in2="hardAlpha" operator="out"/>
<feColorMatrix type="matrix" values="0 0 0 0 0 0 0 0 0 0 0 0 0 0 0 0 0 0 0.25 0"/>
<feBlend mode="normal" in2="BackgroundImageFix" result="effect1_dropShadow_608_1545"/>
<feBlend mode="normal" in="SourceGraphic" in2="effect1_dropShadow_608_1545" result="shape"/>
</filter>
<filter id="filter2_d_608_1545" x="922" y="434" width="198" height="66" filterUnits="userSpaceOnUse" color-interpolation-filters="sRGB">
<feFlood flood-opacity="0" result="BackgroundImageFix"/>
<feColorMatrix in="SourceAlpha" type="matrix" values="0 0 0 0 0 0 0 0 0 0 0 0 0 0 0 0 0 0 127 0" result="hardAlpha"/>
<feOffset dx="4" dy="4"/>
<feGaussianBlur stdDeviation="2"/>
<feComposite in2="hardAlpha" operator="out"/>
<feColorMatrix type="matrix" values="0 0 0 0 0 0 0 0 0 0 0 0 0 0 0 0 0 0 0.25 0"/>
<feBlend mode="normal" in2="BackgroundImageFix" result="effect1_dropShadow_608_1545"/>
<feBlend mode="normal" in="SourceGraphic" in2="effect1_dropShadow_608_1545" result="shape"/>
</filter>
<linearGradient id="paint0_linear_608_1545" x1="37.5" y1="314" x2="1144" y2="504" gradientUnits="userSpaceOnUse">
<stop stop-color="white"/>
<stop offset="1" stop-color="white" stop-opacity="0"/>
<stop offset="1" stop-color="white" stop-opacity="0"/>
</linearGradient>
</defs>
</svg>
